<svg width="32" height="32" viewBox="0 0 32 32" fill="none" xmlns="http://www.w3.org/2000/svg">
<g clip-path="url(#clip0_11_461)">
<path d="M22.3911 18.1335C22.6463 17.4513 22.7758 16.7285 22.7733 16.0001C22.7733 14.3829 22.1308 12.8319 20.9873 11.6883C19.8437 10.5448 18.2927 9.90234 16.6755 9.90234C15.9561 9.90318 15.2427 10.0326 14.5688 10.2846L16 11.7601C16.2175 11.7253 16.4374 11.7075 16.6577 11.7068C17.8012 11.7044 18.8992 12.1546 19.712 12.959C20.5247 13.7634 20.9861 14.8567 20.9955 16.0001C20.9948 16.2204 20.9769 16.4403 20.9422 16.6579L22.3911 18.1335Z" fill="#444444" fill-opacity="0.35"/>
<path d="M30.4798 15.5822C27.4842 10.0445 22.2309 6.69336 16.4175 6.69336C14.8347 6.69708 13.2626 6.9521 11.7598 7.44891L13.1909 8.88891C14.245 8.6165 15.3288 8.47616 16.4175 8.47114C21.422 8.47114 25.9731 11.2622 28.6842 15.9645C27.6897 17.709 26.3713 19.2477 24.7998 20.4978L26.062 21.76C27.8807 20.2928 29.3912 18.4802 30.5064 16.4267L30.7375 16L30.4798 15.5822Z" fill="#444444" fill-opacity="0.35"/>
<path d="M4.32906 5.13768L8.2935 9.10212C5.78765 10.7156 3.73964 12.9472 2.34683 15.5821L2.11572 15.9999L2.34683 16.4266C5.34239 21.9643 10.5957 25.3155 16.4091 25.3155C18.6781 25.315 20.9176 24.8014 22.9602 23.8132L27.4046 28.2577L28.9602 26.9243L5.84906 3.81323L4.32906 5.13768ZM12.9957 13.8043L18.9068 19.7155C18.2389 20.1289 17.4701 20.3503 16.6846 20.3555C16.1139 20.3555 15.5488 20.2426 15.0218 20.0234C14.4949 19.8042 14.0165 19.4829 13.6142 19.0781C13.2118 18.6733 12.8935 18.193 12.6776 17.6647C12.4616 17.1364 12.3522 16.5706 12.3557 15.9999C12.3657 15.2235 12.587 14.4645 12.9957 13.8043ZM11.7068 12.5155C10.8752 13.6883 10.4854 15.1175 10.6065 16.5501C10.7275 17.9827 11.3516 19.3263 12.3683 20.3429C13.3849 21.3595 14.7285 21.9836 16.1611 22.1047C17.5937 22.2257 19.0229 21.836 20.1957 21.0043L21.6179 22.4266C19.9715 23.1303 18.1996 23.4932 16.4091 23.4932C11.4046 23.4932 6.8535 20.7021 4.14239 15.9999C5.44346 13.6961 7.31726 11.7672 9.58239 10.3999L11.7068 12.5155Z" fill="#444444" fill-opacity="0.35"/>
</g>
<defs>
<clipPath id="clip0_11_461">
<rect width="32" height="32" fill="white"/>
</clipPath>
</defs>
</svg>
