<svg width="28" height="27" viewBox="0 0 28 27" fill="none" xmlns="http://www.w3.org/2000/svg">
<g clip-path="url(#clip0_25_18387)">
<path d="M27.5 13.5C27.5 6.04415 21.4558 0 14 0C6.54415 0 0.5 6.04415 0.5 13.5C0.5 20.2382 5.43678 25.8232 11.8906 26.836V17.4023H8.46289V13.5H11.8906V10.5258C11.8906 7.14234 13.9061 5.27344 16.9898 5.27344C18.4668 5.27344 20.0117 5.53711 20.0117 5.53711V8.85938H18.3094C16.6324 8.85938 16.1094 9.89998 16.1094 10.9676V13.5H19.8535L19.255 17.4023H16.1094V26.836C22.5633 25.8232 27.5 20.2382 27.5 13.5Z" fill="#1877F2"/>
<path d="M19.255 17.4023L19.8535 13.5H16.1094V10.9676C16.1094 9.89998 16.6323 8.85938 18.3094 8.85938H20.0117V5.53711C20.0117 5.53711 18.4668 5.27344 16.9898 5.27344C13.9061 5.27344 11.8906 7.14234 11.8906 10.5258V13.5H8.46289V17.4023H11.8906V26.836C12.5779 26.9438 13.2824 27 14 27C14.7176 27 15.422 26.9438 16.1094 26.836V17.4023H19.255Z" fill="white"/>
</g>
<defs>
<clipPath id="clip0_25_18387">
<rect width="27" height="27" fill="white" transform="translate(0.5)"/>
</clipPath>
</defs>
</svg>
