<svg width="15" height="18" viewBox="0 0 15 18" fill="none" xmlns="http://www.w3.org/2000/svg">
<path d="M1.66667 17.3334C1.20833 17.3334 0.815835 17.1701 0.489168 16.8434C0.162501 16.5167 -0.000554141 16.1245 1.41483e-06 15.6667V4.00008C1.41483e-06 3.54175 0.163335 3.14925 0.490001 2.82258C0.816668 2.49591 1.20889 2.33286 1.66667 2.33341H2.5V0.666748H4.16667V2.33341H10.8333V0.666748H12.5V2.33341H13.3333C13.7917 2.33341 14.1842 2.49675 14.5108 2.82341C14.8375 3.15008 15.0006 3.5423 15 4.00008V15.6667C15 16.1251 14.8367 16.5176 14.51 16.8442C14.1833 17.1709 13.7911 17.334 13.3333 17.3334H1.66667ZM1.66667 15.6667H13.3333V7.33341H1.66667V15.6667ZM1.66667 5.66675H13.3333V4.00008H1.66667V5.66675ZM7.5 10.6667C7.26389 10.6667 7.06583 10.5867 6.90583 10.4267C6.74583 10.2667 6.66611 10.069 6.66667 9.83341C6.66667 9.5973 6.74667 9.39925 6.90667 9.23925C7.06667 9.07925 7.26445 8.99953 7.5 9.00008C7.73611 9.00008 7.93417 9.08008 8.09417 9.24008C8.25417 9.40008 8.33389 9.59786 8.33333 9.83341C8.33333 10.0695 8.25333 10.2676 8.09333 10.4276C7.93333 10.5876 7.73556 10.6673 7.5 10.6667ZM4.16667 10.6667C3.93056 10.6667 3.7325 10.5867 3.5725 10.4267C3.4125 10.2667 3.33278 10.069 3.33333 9.83341C3.33333 9.5973 3.41333 9.39925 3.57333 9.23925C3.73334 9.07925 3.93111 8.99953 4.16667 9.00008C4.40278 9.00008 4.60083 9.08008 4.76084 9.24008C4.92084 9.40008 5.00056 9.59786 5 9.83341C5 10.0695 4.92 10.2676 4.76 10.4276C4.6 10.5876 4.40222 10.6673 4.16667 10.6667ZM10.8333 10.6667C10.5972 10.6667 10.3992 10.5867 10.2392 10.4267C10.0792 10.2667 9.99945 10.069 10 9.83341C10 9.5973 10.08 9.39925 10.24 9.23925C10.4 9.07925 10.5978 8.99953 10.8333 9.00008C11.0694 9.00008 11.2675 9.08008 11.4275 9.24008C11.5875 9.40008 11.6672 9.59786 11.6667 9.83341C11.6667 10.0695 11.5867 10.2676 11.4267 10.4276C11.2667 10.5876 11.0689 10.6673 10.8333 10.6667ZM7.5 14.0001C7.26389 14.0001 7.06583 13.9201 6.90583 13.7601C6.74583 13.6001 6.66611 13.4023 6.66667 13.1667C6.66667 12.9306 6.74667 12.7326 6.90667 12.5726C7.06667 12.4126 7.26445 12.3329 7.5 12.3334C7.73611 12.3334 7.93417 12.4134 8.09417 12.5734C8.25417 12.7334 8.33389 12.9312 8.33333 13.1667C8.33333 13.4029 8.25333 13.6009 8.09333 13.7609C7.93333 13.9209 7.73556 14.0006 7.5 14.0001ZM4.16667 14.0001C3.93056 14.0001 3.7325 13.9201 3.5725 13.7601C3.4125 13.6001 3.33278 13.4023 3.33333 13.1667C3.33333 12.9306 3.41333 12.7326 3.57333 12.5726C3.73334 12.4126 3.93111 12.3329 4.16667 12.3334C4.40278 12.3334 4.60083 12.4134 4.76084 12.5734C4.92084 12.7334 5.00056 12.9312 5 13.1667C5 13.4029 4.92 13.6009 4.76 13.7609C4.6 13.9209 4.40222 14.0006 4.16667 14.0001ZM10.8333 14.0001C10.5972 14.0001 10.3992 13.9201 10.2392 13.7601C10.0792 13.6001 9.99945 13.4023 10 13.1667C10 12.9306 10.08 12.7326 10.24 12.5726C10.4 12.4126 10.5978 12.3329 10.8333 12.3334C11.0694 12.3334 11.2675 12.4134 11.4275 12.5734C11.5875 12.7334 11.6672 12.9312 11.6667 13.1667C11.6667 13.4029 11.5867 13.6009 11.4267 13.7609C11.2667 13.9209 11.0689 14.0006 10.8333 14.0001Z" fill="#8A8888"/>
</svg>
