<svg width="610" height="389" viewBox="0 0 610 389" fill="none" xmlns="http://www.w3.org/2000/svg">
<path d="M8.53192 266.88C-0.234042 279.392 -6.80851 284.258 -9 285.127V392H609V1C599.991 28.8045 578.465 81.2854 564.44 68.7734C546.908 53.1333 527.184 55.74 514.035 68.7734C500.887 81.8067 492.851 100.053 478.241 102.66C463.631 105.267 468.014 92.2334 445.369 84.4134C422.723 76.5934 413.227 152.187 402.27 173.04C391.312 193.893 363.553 188.68 353.326 173.04C343.099 157.4 334.333 152.187 326.298 152.187C318.262 152.187 318.262 170.433 306.574 173.04C294.887 175.647 283.199 149.58 267.128 152.187C251.057 154.793 229.142 204.32 212.34 206.927C195.539 209.533 205.766 193.893 181.66 188.68C157.553 183.467 138.56 251.24 123.22 266.88C107.879 282.52 85.234 248.633 72.8156 238.207C60.3972 227.78 48.7092 266.88 39.2128 266.88C29.7163 266.88 19.4894 251.24 8.53192 266.88Z" fill="url(#paint0_linear_113_102)" stroke="#0B84C8" stroke-width="2"/>
<defs>
<linearGradient id="paint0_linear_113_102" x1="300" y1="1" x2="300" y2="392.643" gradientUnits="userSpaceOnUse">
<stop offset="0.528781" stop-color="#0B84C8" stop-opacity="0.3"/>
<stop offset="1" stop-color="#0B84C8" stop-opacity="0.2"/>
</linearGradient>
</defs>
</svg>
