<svg width="92" height="36" viewBox="0 0 92 36" fill="none" xmlns="http://www.w3.org/2000/svg">
<path d="M23.214 31.6342C23.214 31.3915 23.214 31.1487 23.214 30.9059L18.4742 32.6901V34.5475C18.4731 34.7078 18.5344 34.8622 18.6452 34.978C18.7559 35.0938 18.9075 35.1619 19.0676 35.1679H22.663C22.7892 35.1685 22.9121 35.1278 23.013 35.052C23.1139 34.9761 23.1872 34.8693 23.2217 34.7479C23.2435 34.6833 23.2552 34.6157 23.2564 34.5475C23.2358 33.5739 23.2217 32.6028 23.214 31.6342ZM28.609 18.6671L18.4665 8.51305V15.6036C18.1355 13.8311 17.2975 12.1927 16.0541 10.8868C14.0349 8.8406 11.3991 8.43213 9.5648 8.43213C6.71319 8.43213 4.42033 9.2722 2.80956 10.9138C1.38413 12.383 0.559447 14.332 0.497437 16.3781C0.497437 19.6305 2.20455 22.1122 5.32977 23.3838C6.68454 23.9028 8.11828 24.1857 9.56865 24.22C10.3994 24.2609 11.2174 24.4406 11.9887 24.7518C13.6033 25.3954 13.823 26.4204 13.823 27.2952C13.7605 27.8185 13.5913 28.3234 13.3258 28.7788C12.6746 29.8308 11.4646 30.3587 9.56865 30.3587C7.79988 30.3587 6.59372 29.8038 5.93862 28.7171C5.67061 28.3029 5.49332 27.8367 5.4184 27.3491C5.4184 27.3183 5.38372 27.2952 5.38372 27.2566V27.2297C5.35622 27.1148 5.2942 27.0112 5.20602 26.9326C5.11783 26.8541 5.00771 26.8044 4.89046 26.7904H1.07547C0.927292 26.8115 0.791025 26.8834 0.689853 26.9937C0.588681 27.104 0.528856 27.2459 0.520558 27.3954C0.520558 27.4609 0.55524 27.5225 0.55524 27.5842C0.701429 28.7691 1.07012 29.9157 1.64194 30.9637C3.16023 33.6612 5.98487 35.2026 9.57636 35.2026C14.1389 35.2026 16.3701 33.0909 17.4568 31.2913C17.9356 30.5169 18.2808 29.6676 18.478 28.7788V32.6901L38.763 21.5496V8.51305L28.609 18.6671ZM18.4665 25.5457C17.9501 23.1526 16.3509 21.3068 13.8191 20.2509C12.4683 19.7143 11.0332 19.4208 9.58021 19.3839C8.75383 19.3424 7.93882 19.1734 7.16405 18.8829C5.54942 18.2355 5.32977 17.2413 5.32977 16.3781C5.39452 15.6125 5.7117 14.89 6.23149 14.3242C6.9444 13.6151 8.06577 13.276 9.58021 13.276C11.9424 13.276 12.7786 14.2972 13.2141 15.0718C13.47 15.6058 13.6565 16.1705 13.769 16.7519V16.8367C13.8001 16.9614 13.8664 17.0746 13.96 17.1628C14.0536 17.2509 14.1705 17.3103 14.2969 17.3338H18.0464C18.1294 17.3353 18.2117 17.3181 18.2871 17.2834C18.3625 17.2487 18.4291 17.1974 18.4819 17.1334L18.4665 25.5457ZM52.5086 20.3473L49.6993 9.08723L49.6647 8.93309C49.6203 8.82064 49.5435 8.72395 49.444 8.65533C49.3444 8.5867 49.2268 8.54924 49.1059 8.54773H45.0481C44.9274 8.54975 44.8099 8.58741 44.7105 8.65597C44.6111 8.72453 44.5342 8.82094 44.4894 8.93309L44.4585 9.1142L41.7611 19.9041L48.7321 16.0506C48.262 18.1931 47.7931 20.337 47.3256 22.4821L52.5086 20.3473Z" fill="#FC6736"/>
<path d="M91.5025 9.08716V12.7172C91.4831 12.8968 91.3946 13.0618 91.2559 13.1775C91.1172 13.2933 90.939 13.3506 90.7588 13.3376H84.8359V34.3933C84.8488 34.5691 84.7955 34.7433 84.6863 34.8816C84.5772 35.02 84.4203 35.1125 84.2463 35.1409H80.5855C80.4116 35.1125 80.2546 35.02 80.1455 34.8816C80.0364 34.7433 79.983 34.5691 79.9959 34.3933V13.3376H74.574C75.044 14.2973 75.2879 15.3519 75.2869 16.4204C75.2869 19.6805 72.9748 22.9984 68.4623 23.9926L68.6164 24.2701L69.2985 25.4531L74.231 34.1929L74.2618 34.2584C74.3113 34.3434 74.3329 34.4418 74.3235 34.5397C74.3293 34.6214 74.3184 34.7034 74.2915 34.7807C74.2647 34.8581 74.2224 34.9291 74.1673 34.9897C74.1122 35.0502 74.0453 35.0989 73.9709 35.1328C73.8964 35.1668 73.8158 35.1853 73.7339 35.1871H69.5759C69.4767 35.1878 69.379 35.1626 69.2925 35.1139C69.206 35.0653 69.1337 34.9949 69.0827 34.9097L69.0172 34.8095L63.7186 25.4338L63.0635 24.2508H60.7514V34.5475C60.7535 34.7067 60.6936 34.8606 60.5842 34.9764C60.4749 35.0922 60.3247 35.1609 60.1656 35.1679H56.5394C56.4159 35.1695 56.2949 35.1334 56.1923 35.0646C56.0898 34.9958 56.0106 34.8974 55.9653 34.7825C55.9184 34.8785 55.8454 34.9593 55.7548 35.0159C55.6642 35.0724 55.5596 35.1024 55.4527 35.1024H51.5221C51.1638 33.6997 50.8092 32.3047 50.4509 30.9059H43.7226C43.3642 32.3047 42.9981 33.6997 42.6398 35.1024H38.7169C38.6439 35.1004 38.572 35.0847 38.5049 35.0561C38.4054 35.129 38.2853 35.1682 38.1619 35.1679H34.5974C34.4332 35.1669 34.276 35.1012 34.1598 34.985C34.0437 34.8689 33.978 34.7117 33.977 34.5475C33.977 33.3297 33.977 32.1159 33.977 30.9059L28.6167 35.8114L23.2218 30.9059C28.4009 28.9483 33.5801 26.9945 38.7592 25.0446V31.9039L39.0097 30.9059L40.6475 24.3125C41.4182 24.0157 42.2082 23.7267 42.9827 23.4339C42.492 25.43 42.0026 27.4325 41.5145 29.4415L53.1483 22.983L54.6898 29.0446L55.1522 30.8943L55.6917 33.0215L55.8998 33.8577V21.457C61.8881 18.1353 67.8778 14.8071 73.8688 11.4725L55.9036 18.9175V9.11414C55.9106 8.95502 55.9793 8.80487 56.0951 8.69553C56.2109 8.58619 56.3648 8.52624 56.524 8.5284H65.5798C68.3968 8.5284 70.8515 9.29911 72.5856 10.7943C72.8491 11.0123 73.0976 11.2479 73.3293 11.4995V9.08716C73.3303 9.00722 73.3472 8.92828 73.3791 8.85496C73.4109 8.78164 73.4571 8.71541 73.5149 8.66014C73.5726 8.60488 73.6409 8.5617 73.7155 8.53312C73.7902 8.50455 73.8698 8.49115 73.9497 8.49372H90.7588L91.5025 9.08716Z" fill="#FC6736"/>
<path d="M81.0093 6.933H78.1885C76.0999 5.49178 74.0152 4.04927 71.9343 2.60548C71.9152 2.60174 71.8955 2.60174 71.8765 2.60548C71.8658 2.60533 71.8552 2.60729 71.8452 2.61126C71.8353 2.61523 71.8263 2.62112 71.8187 2.6286L65.6453 6.97153H62.3813L71.5412 0.536134C71.5947 0.508452 71.6544 0.495169 71.7146 0.497596C71.7754 0.501025 71.8347 0.518151 71.888 0.547694L81.0093 6.933Z" fill="#FC6736"/>
<path d="M79.7146 2.32024H75.5181L73.075 0.601562H77.2907C78.1 1.19115 78.9092 1.74606 79.7146 2.32024Z" fill="#3D3D3D"/>
<path d="M82.6895 4.40909H78.4853L76.2926 2.86768H80.4968L82.6895 4.40909Z" fill="#3D3D3D"/>
<path d="M86.2694 6.92934H82.096L79.1943 4.88696H83.3947L86.2694 6.92934Z" fill="#3D3D3D"/>
<path d="M84.9131 2.3204H80.7166L78.2927 0.613281H82.4969C83.3062 1.19131 84.1154 1.75393 84.9131 2.3204Z" fill="#3D3D3D"/>
<path d="M87.9149 4.40909H83.676L81.4872 2.86768H85.7029L87.9149 4.40909Z" fill="#3D3D3D"/>
<path d="M90.7627 6.58637C90.7396 6.76749 90.493 6.93704 90.1577 6.90622H87.2599C86.3042 6.23185 85.3331 5.55748 84.3928 4.88696H88.6317L90.6394 6.2935C90.6811 6.32955 90.7139 6.37473 90.7353 6.42552C90.7567 6.47632 90.7661 6.53136 90.7627 6.58637Z" fill="#3D3D3D"/>
</svg>
