<svg width="28" height="27" viewBox="0 0 28 27" fill="none" xmlns="http://www.w3.org/2000/svg">
<path d="M13.9992 5.62475C15.818 5.62475 17.488 6.24747 18.8211 7.28306L22.9128 3.37935C20.5339 1.2822 17.4198 -0.000244141 13.9992 -0.000244141C8.8158 -0.000244141 4.32074 2.92466 2.05859 7.21083L6.60844 10.8029C7.71061 7.78404 10.599 5.62475 13.9992 5.62475Z" fill="#F44336"/>
<path d="M27.3822 15.1896C27.4525 14.6365 27.4991 14.0722 27.4991 13.5C27.4991 12.5349 27.3937 11.5952 27.2012 10.6875H13.9995V16.3125H21.2963C20.706 17.8467 19.655 19.145 18.3171 20.0469L22.8839 23.6523C25.3047 21.5274 26.9613 18.5516 27.3822 15.1896Z" fill="#2196F3"/>
<path d="M6.12482 13.5006C6.12482 12.5517 6.30129 11.6462 6.60883 10.8037L2.05898 7.21167C1.06736 9.0906 0.5 11.2283 0.5 13.5006C0.5 15.7475 1.05692 17.8615 2.02794 19.7252L6.58356 16.1285C6.29181 15.3056 6.12482 14.4236 6.12482 13.5006Z" fill="#FFC107"/>
<path d="M14 21.3745C10.5738 21.3745 7.66688 19.1825 6.58393 16.1274L2.02832 19.7241C4.27942 24.0447 8.79115 26.9995 14 26.9995C17.4061 26.9995 20.5121 25.7341 22.8843 23.6518L18.3176 20.0464C17.0837 20.8783 15.6069 21.3745 14 21.3745Z" fill="#00B060"/>
<path opacity="0.1" d="M14.0004 26.7185C10.0274 26.7185 6.45495 25.0793 3.9292 22.4675C6.40166 25.2423 9.99154 26.9998 14.0004 26.9998C17.9722 26.9998 21.5323 25.277 23.9992 22.5457C21.481 25.115 17.9356 26.7185 14.0004 26.7185Z" fill="#3D3D3D"/>
<path opacity="0.1" d="M13.9995 16.0312V16.3125H21.2963L21.4102 16.0312H13.9995Z" fill="#3D3D3D"/>
<path d="M27.4937 13.6652C27.4946 13.6097 27.5 13.5553 27.5 13.4997C27.5 13.484 27.4975 13.4688 27.4974 13.4531C27.4967 13.524 27.4931 13.594 27.4937 13.6652Z" fill="#E6E6E6"/>
<path opacity="0.2" d="M13.9995 10.6875V10.9687H27.2579C27.2401 10.8759 27.2208 10.7796 27.2012 10.6875H13.9995Z" fill="white"/>
<path d="M27.2013 10.6875H13.9996V16.3125H21.2963C20.1616 19.2618 17.3488 21.375 13.9996 21.375C9.6505 21.375 6.12482 17.8492 6.12482 13.5C6.12482 9.15071 9.6505 5.62499 13.9996 5.62499C15.5766 5.62499 17.0301 6.10949 18.2615 6.90826C18.45 7.03076 18.6445 7.14577 18.8215 7.28331L22.9132 3.3796L22.8209 3.3086C20.4534 1.2567 17.3785 0 13.9996 0C6.54394 0 0.5 6.04412 0.5 13.5C0.5 20.9558 6.54394 27 13.9996 27C20.8817 27 26.5491 21.8461 27.3822 15.1895C27.4525 14.6364 27.4992 14.0722 27.4992 13.5C27.4992 12.5349 27.3938 11.5952 27.2013 10.6875Z" fill="url(#paint0_linear_25_18373)"/>
<path opacity="0.1" d="M18.2617 6.62706C17.0303 5.82828 15.5768 5.34379 13.9998 5.34379C9.65068 5.34379 6.125 8.8695 6.125 13.2188C6.125 13.2662 6.12564 13.3033 6.12646 13.3506C6.20233 9.06698 9.69812 5.62504 13.9998 5.62504C15.5768 5.62504 17.0303 6.10953 18.2617 6.90831C18.4502 7.0308 18.6446 7.14582 18.8217 7.28335L22.9134 3.37964L18.8217 7.0021C18.6446 6.86457 18.4502 6.74955 18.2617 6.62706Z" fill="#3D3D3D"/>
<path opacity="0.2" d="M13.9996 0.28125C17.3464 0.28125 20.3927 1.51694 22.751 3.5343L22.9132 3.3796L22.7894 3.2718C20.422 1.2199 17.3785 0 13.9996 0C6.54394 0 0.5 6.04412 0.5 13.5C0.5 13.5474 0.506592 13.5932 0.507072 13.6406C0.583287 6.25032 6.59138 0.28125 13.9996 0.28125Z" fill="white"/>
<defs>
<linearGradient id="paint0_linear_25_18373" x1="0.5" y1="13.5" x2="27.4992" y2="13.5" gradientUnits="userSpaceOnUse">
<stop stop-color="white" stop-opacity="0.2"/>
<stop offset="1" stop-color="white" stop-opacity="0"/>
</linearGradient>
</defs>
</svg>
