<svg width="700" height="468" viewBox="0 0 700 468" fill="none" xmlns="http://www.w3.org/2000/svg">
<path d="M617.251 399.263C648.527 350.207 656.553 288.309 647.612 231.543C645.917 220.73 643.422 210.057 640.145 199.614C618.175 130.062 561.811 74.3513 495.105 45.0353C431.461 17.0353 351.008 3.20328 290.705 46.2953C251.001 74.6686 228.517 120.141 192.164 151.967C174.095 167.834 154.317 172.921 132.813 182.385C80.4254 205.447 36.5681 249.921 32.9654 308.618C30.8102 340.347 38.3836 371.979 54.6748 399.291L617.251 399.263Z" fill="#FC6736"/>
<path opacity="0.8" d="M617.251 399.263C648.527 350.207 656.553 288.309 647.612 231.543C645.917 220.73 643.422 210.057 640.145 199.614C618.175 130.062 561.811 74.3513 495.105 45.0353C431.461 17.0353 351.008 3.20328 290.705 46.2953C251.001 74.6686 228.517 120.141 192.164 151.967C174.095 167.834 154.317 172.921 132.813 182.385C80.4254 205.447 36.5681 249.921 32.9654 308.618C30.8102 340.347 38.3836 371.979 54.6748 399.291L617.251 399.263Z" fill="white"/>
<path d="M364.504 77.478C364.299 76.8153 364.075 76.162 363.832 75.4993C355.05 51.0647 314.179 49.366 314.179 79.41C314.179 85.1873 300.3 79.41 295.102 86.8767C289.903 94.3433 295.68 99.01 288.736 101.334C281.792 103.658 281.223 97.862 272.543 98.4407C263.863 99.0193 265.03 107.111 262.136 109.426C259.243 111.741 259.243 110.583 252.887 111.162C246.531 111.741 245.364 116.37 245.364 116.37H397.498C397.498 116.37 403.275 99.0193 392.831 92.6633C382.387 86.3073 382.424 94.9686 374.323 91.506C367.631 88.6873 366.38 83.246 364.504 77.478Z" stroke="#B2B2B2" stroke-width="0.933333" stroke-linecap="round" stroke-linejoin="round"/>
<path d="M369.768 110.089C369.768 110.089 372.913 100.354 365.185 93.186C357.457 86.018 349.431 90.0407 347.144 93.186C344.857 96.3313 344.848 102.351 341.124 102.93C337.4 103.509 338.268 96.63 330.241 98.3473C322.215 100.065 325.379 108.082 321.655 109.799C317.931 111.517 317.921 105.217 312.769 107.223C307.617 109.23 307.907 112.954 307.907 112.954" stroke="#B2B2B2" stroke-width="0.933333" stroke-linecap="round" stroke-linejoin="round"/>
<path d="M328.636 90.6287C326.526 89.1283 324.053 88.2195 321.473 87.9963C318.893 87.7731 316.301 88.2437 313.964 89.3593C305.676 93.186 309.503 101.157 305.676 103.07C301.85 104.983 299.936 102.743 295.148 104.937C290.36 107.13 290.687 110.35 290.687 110.35" stroke="#B2B2B2" stroke-width="0.933333" stroke-linecap="round" stroke-linejoin="round"/>
<path d="M254.856 131.733C254.763 131.453 254.66 131.163 254.557 130.874C250.74 120.243 232.96 119.515 232.96 132.573C232.96 135.093 226.921 132.573 224.653 135.839C222.385 139.106 224.905 141.131 221.853 142.13C218.801 143.129 218.577 140.627 214.807 140.879C211.036 141.131 211.531 144.613 210.28 145.658C209.029 146.703 209.02 146.162 206.248 146.414C203.476 146.666 202.981 148.673 202.981 148.673H269.145C269.145 148.673 271.665 141.131 267.129 138.406C262.593 135.681 262.603 139.414 259.084 137.902C256.209 136.605 255.668 134.243 254.856 131.733Z" stroke="#B2B2B2" stroke-width="0.933333" stroke-linecap="round" stroke-linejoin="round"/>
<path d="M257.143 145.919C257.509 144.629 257.517 143.263 257.165 141.969C256.813 140.675 256.115 139.501 255.145 138.574C251.785 135.457 248.295 137.202 247.296 138.574C246.297 139.946 246.297 142.559 244.683 142.811C243.068 143.063 243.432 140.067 239.941 140.814C236.451 141.561 237.823 145.051 236.208 145.798C234.593 146.545 234.584 143.801 232.344 144.678C230.104 145.555 230.225 147.17 230.225 147.17" stroke="#B2B2B2" stroke-width="0.933333" stroke-linecap="round" stroke-linejoin="round"/>
<path d="M239.242 137.454C238.325 136.8 237.251 136.404 236.13 136.308C235.008 136.211 233.882 136.417 232.867 136.903C229.255 138.565 230.916 142.037 229.255 142.867C227.594 143.698 226.763 142.727 224.682 143.698C222.6 144.669 222.74 146.059 222.74 146.059" stroke="#B2B2B2" stroke-width="0.933333" stroke-linecap="round" stroke-linejoin="round"/>
<path d="M604.912 131.733C604.819 131.453 604.725 131.163 604.623 130.874C600.796 120.243 583.016 119.515 583.016 132.573C583.016 135.093 576.978 132.573 574.719 135.839C572.46 139.106 574.971 141.131 571.919 142.13C568.867 143.129 568.652 140.627 564.881 140.879C561.111 141.131 561.605 144.613 560.345 145.658C559.085 146.703 559.095 146.162 556.323 146.414C553.551 146.666 553.056 148.673 553.056 148.673H619.22C619.22 148.673 621.731 141.131 617.204 138.406C612.677 135.681 612.677 139.414 609.159 137.902C606.275 136.605 605.733 134.243 604.912 131.733Z" stroke="#B2B2B2" stroke-width="0.933333" stroke-linecap="round" stroke-linejoin="round"/>
<path d="M607.199 145.919C607.566 144.63 607.574 143.265 607.224 141.971C606.874 140.677 606.178 139.502 605.211 138.574C601.841 135.457 598.36 137.202 597.361 138.574C596.363 139.946 596.363 142.559 594.739 142.811C593.115 143.063 593.497 140.067 590.007 140.814C586.516 141.561 587.888 145.051 586.273 145.798C584.659 146.545 584.649 143.801 582.409 144.678C580.169 145.555 580.291 147.17 580.291 147.17" stroke="#B2B2B2" stroke-width="0.933333" stroke-linecap="round" stroke-linejoin="round"/>
<path d="M589.307 137.454C588.389 136.8 587.313 136.403 586.19 136.306C585.067 136.21 583.939 136.416 582.923 136.903C579.32 138.565 580.981 142.037 579.32 142.867C577.659 143.698 576.819 142.727 574.737 143.698C572.656 144.669 572.796 146.059 572.796 146.059" stroke="#B2B2B2" stroke-width="0.933333" stroke-linecap="round" stroke-linejoin="round"/>
<path d="M102.835 367.138C104.18 367.492 105.57 367.646 106.96 367.595C106.96 367.595 106.335 365.682 106.279 365.57C105.635 364.226 103.61 362.005 101.958 362.229C101.684 362.272 101.422 362.373 101.19 362.525C100.958 362.677 100.76 362.876 100.611 363.11C100.461 363.343 100.362 363.606 100.321 363.88C100.279 364.155 100.297 364.435 100.371 364.702C100.578 365.264 100.906 365.774 101.332 366.195C101.757 366.616 102.271 366.938 102.835 367.138Z" fill="#263238"/>
<path d="M131.6 398.125C131.723 397.876 131.792 397.604 131.803 397.326C131.814 397.048 131.767 396.772 131.664 396.514C131.561 396.256 131.405 396.022 131.206 395.829C131.006 395.635 130.769 395.486 130.508 395.39C128.931 394.867 126.513 396.659 125.636 397.854C125.636 397.91 125.3 398.414 125.029 398.881H131.049C131.275 398.663 131.462 398.407 131.6 398.125Z" fill="#263238"/>
<path d="M122.659 390.35C123.74 391.074 124.927 391.625 126.177 391.983C126.056 392.562 125.935 393.131 125.785 393.691C125.683 394.065 125.608 394.429 125.477 394.802C125.347 395.175 125.244 395.53 125.123 395.894C124.871 396.585 124.619 397.294 124.357 397.957C124.236 398.283 124.115 398.582 123.993 398.89H124.973C125.048 398.694 125.123 398.498 125.197 398.283C125.449 397.593 125.683 396.902 125.935 396.155L126.271 395.054C126.383 394.69 126.467 394.289 126.56 393.897C126.775 392.963 126.952 392.077 127.111 391.097C128.343 391.606 129.646 391.921 130.975 392.03C131.575 392.026 132.166 391.893 132.709 391.638C133.253 391.384 133.734 391.014 134.12 390.555C134.279 390.328 134.389 390.07 134.441 389.798C134.494 389.526 134.489 389.245 134.427 388.975C134.364 388.705 134.246 388.451 134.079 388.23C133.912 388.008 133.7 387.824 133.457 387.69C131.973 386.934 129.313 388.334 128.259 389.389C128.193 389.454 127.521 390.322 127.167 390.761C127.251 390.201 127.344 389.631 127.409 389.062C127.615 387.41 127.773 385.73 127.941 384.059C127.941 383.546 128.044 383.033 128.1 382.519C129.377 383.03 130.724 383.345 132.095 383.453C132.695 383.449 133.286 383.315 133.829 383.061C134.373 382.806 134.854 382.437 135.24 381.978C135.399 381.751 135.509 381.493 135.561 381.22C135.614 380.948 135.609 380.668 135.547 380.398C135.484 380.128 135.366 379.874 135.199 379.652C135.032 379.431 134.82 379.247 134.577 379.113C133.093 378.357 130.433 379.757 129.379 380.811C129.304 380.886 128.333 382.099 128.109 382.417C128.221 381.287 128.352 380.167 128.529 379.066C128.745 377.582 129.057 376.114 129.463 374.67C130.749 375.181 132.105 375.496 133.485 375.603C134.084 375.601 134.675 375.468 135.217 375.213C135.758 374.958 136.238 374.588 136.621 374.129C136.782 373.903 136.892 373.645 136.946 373.373C136.999 373.102 136.995 372.822 136.932 372.552C136.869 372.282 136.75 372.028 136.583 371.808C136.415 371.587 136.202 371.405 135.959 371.273C134.475 370.507 131.824 371.917 130.769 372.971C130.685 373.046 129.649 374.353 129.472 374.595C129.498 374.512 129.52 374.428 129.537 374.343C129.993 372.906 130.577 371.513 131.283 370.181C131.665 369.434 132.067 368.743 132.477 368.09C133.672 368.724 134.956 369.174 136.285 369.425C136.882 369.49 137.485 369.423 138.053 369.23C138.62 369.036 139.139 368.72 139.571 368.305C139.754 368.097 139.891 367.853 139.973 367.589C140.055 367.325 140.081 367.046 140.048 366.772C140.016 366.497 139.926 366.232 139.784 365.994C139.642 365.757 139.452 365.552 139.225 365.393C137.835 364.459 135.044 365.579 133.877 366.503C133.812 366.559 133.224 367.138 132.804 367.567L133.373 366.69C134.064 365.635 134.773 364.721 135.399 363.89C135.763 363.433 136.099 363.031 136.416 362.649C137.762 362.668 139.104 362.479 140.392 362.089C140.951 361.87 141.455 361.532 141.869 361.099C142.284 360.665 142.598 360.146 142.791 359.578C142.858 359.31 142.867 359.03 142.819 358.758C142.771 358.486 142.666 358.227 142.511 357.998C142.356 357.769 142.154 357.576 141.92 357.43C141.685 357.284 141.422 357.189 141.148 357.151C139.487 356.974 137.517 359.242 136.911 360.605C136.855 360.726 136.248 362.658 136.285 362.658C135.977 363.013 135.641 363.395 135.287 363.825C134.643 364.618 133.915 365.523 133.196 366.569C132.404 367.679 131.678 368.835 131.021 370.031C130.27 371.364 129.645 372.763 129.155 374.213C129.155 374.213 129.155 374.213 129.155 374.259C129.155 373.774 129.155 372.393 129.155 372.299C128.968 370.825 127.727 368.09 126.084 367.782C125.81 367.74 125.53 367.756 125.263 367.829C124.995 367.902 124.746 368.031 124.532 368.208C124.318 368.384 124.144 368.603 124.02 368.852C123.897 369.1 123.827 369.372 123.816 369.649C123.839 370.247 123.992 370.834 124.264 371.367C124.537 371.901 124.922 372.368 125.393 372.738C126.548 373.487 127.806 374.062 129.127 374.446C128.659 375.929 128.291 377.441 128.025 378.973C127.867 379.906 127.736 380.765 127.615 381.679C127.615 381.25 127.615 380.877 127.615 380.821C127.419 379.346 126.187 376.611 124.544 376.303C124.27 376.261 123.989 376.277 123.721 376.35C123.453 376.424 123.204 376.553 122.989 376.729C122.774 376.905 122.599 377.124 122.475 377.372C122.35 377.621 122.279 377.892 122.267 378.17C122.292 378.769 122.447 379.356 122.721 379.889C122.995 380.422 123.381 380.89 123.853 381.259C124.969 381.996 126.19 382.559 127.475 382.93C127.475 383.275 127.391 383.621 127.344 383.975C127.148 385.646 126.952 387.317 126.719 388.95C126.635 389.529 126.532 390.089 126.429 390.649C126.429 390.275 126.429 389.958 126.429 389.911C126.243 388.437 125.001 385.702 123.368 385.394C123.094 385.352 122.813 385.368 122.545 385.441C122.277 385.514 122.028 385.643 121.813 385.819C121.598 385.995 121.423 386.215 121.299 386.463C121.174 386.711 121.103 386.983 121.091 387.261C121.114 387.858 121.266 388.444 121.536 388.977C121.807 389.51 122.19 389.979 122.659 390.35Z" fill="#263238"/>
<path d="M103.852 375.622C105.23 375.613 106.599 375.396 107.912 374.978C108.341 376.473 108.868 377.939 109.489 379.365C109.853 380.195 110.236 381.017 110.637 381.847C110.404 381.493 110.189 381.185 110.152 381.147C109.219 380.018 106.633 378.413 105.093 379.066C104.843 379.183 104.62 379.35 104.438 379.558C104.257 379.766 104.121 380.01 104.039 380.274C103.957 380.537 103.932 380.815 103.964 381.09C103.996 381.364 104.085 381.628 104.225 381.866C104.576 382.351 105.028 382.754 105.551 383.048C106.073 383.341 106.652 383.517 107.249 383.565C108.588 383.563 109.92 383.359 111.197 382.958C111.347 383.275 111.505 383.593 111.664 383.891C112.42 385.394 113.176 386.897 113.876 388.39C114.128 388.922 114.352 389.445 114.576 389.967C114.371 389.659 114.184 389.407 114.156 389.37C113.223 388.241 110.637 386.635 109.097 387.289C108.846 387.404 108.622 387.571 108.439 387.779C108.257 387.987 108.12 388.231 108.039 388.495C107.957 388.759 107.931 389.038 107.964 389.312C107.997 389.587 108.087 389.851 108.229 390.089C108.578 390.576 109.03 390.982 109.552 391.277C110.075 391.572 110.655 391.749 111.253 391.797C112.554 391.801 113.848 391.606 115.089 391.218C115.304 391.769 115.528 392.31 115.705 392.851C115.827 393.225 115.967 393.57 116.06 393.953L116.368 395.063C116.545 395.773 116.723 396.51 116.872 397.201C116.984 397.686 117.077 398.134 117.171 398.619C116.928 398.097 116.433 397.07 116.387 396.995C115.593 395.735 113.325 393.766 111.72 394.195C111.453 394.271 111.205 394.402 110.992 394.579C110.778 394.757 110.605 394.978 110.483 395.227C110.36 395.476 110.292 395.748 110.281 396.025C110.271 396.303 110.319 396.579 110.423 396.837C110.67 397.33 111.018 397.767 111.444 398.119C111.87 398.471 112.364 398.73 112.896 398.881H118.188C118.188 398.769 118.132 398.657 118.113 398.535C118.894 398.225 119.654 397.866 120.391 397.462C120.978 398.02 121.637 398.497 122.351 398.881H123.9C123.984 398.302 124.077 397.593 124.077 397.518C124.064 396.206 123.71 394.919 123.051 393.785C123.07 393.639 123.07 393.492 123.051 393.346C123.017 393.071 122.926 392.806 122.784 392.568C122.641 392.331 122.45 392.126 122.222 391.967C121.995 391.809 121.737 391.7 121.465 391.648C121.192 391.596 120.912 391.602 120.643 391.666C119.028 392.095 118.011 394.923 117.927 396.417C117.927 396.501 117.983 397.462 118.029 398.059C117.945 397.714 117.871 397.369 117.787 397.014C117.619 396.295 117.423 395.595 117.227 394.83L116.891 393.729C116.788 393.355 116.629 392.982 116.508 392.599C116.181 391.731 115.817 390.863 115.435 389.995C116.744 389.728 118.003 389.259 119.168 388.605C119.667 388.272 120.087 387.836 120.399 387.325C120.712 386.814 120.91 386.241 120.979 385.646C120.985 385.369 120.933 385.093 120.826 384.837C120.719 384.581 120.56 384.351 120.359 384.16C120.157 383.969 119.918 383.823 119.657 383.73C119.396 383.637 119.118 383.6 118.841 383.621C117.189 383.807 115.752 386.421 115.453 387.905C115.453 387.998 115.332 389.062 115.285 389.65C115.052 389.137 114.819 388.614 114.567 388.101C113.82 386.607 113.027 385.123 112.233 383.63L111.524 382.267C112.873 381.986 114.172 381.504 115.379 380.839C115.876 380.506 116.295 380.069 116.608 379.558C116.92 379.047 117.119 378.475 117.189 377.881C117.195 377.604 117.143 377.329 117.036 377.073C116.93 376.818 116.77 376.588 116.569 376.397C116.367 376.207 116.128 376.062 115.867 375.97C115.606 375.878 115.328 375.842 115.052 375.865C113.4 376.042 111.963 378.665 111.655 380.139C111.655 380.251 111.496 381.791 111.477 382.183C110.955 381.175 110.451 380.167 109.984 379.159C109.35 377.797 108.807 376.394 108.36 374.959C109.714 374.674 111.018 374.193 112.233 373.531C112.731 373.196 113.151 372.758 113.463 372.245C113.776 371.733 113.974 371.159 114.044 370.563C114.05 370.286 113.998 370.011 113.891 369.756C113.784 369.5 113.625 369.27 113.423 369.08C113.222 368.89 112.983 368.745 112.722 368.653C112.46 368.561 112.183 368.525 111.907 368.547C110.255 368.725 108.817 371.347 108.519 372.822C108.519 372.934 108.341 374.595 108.332 374.894C108.332 374.819 108.276 374.735 108.248 374.651C107.815 373.203 107.509 371.719 107.333 370.218C107.24 369.397 107.193 368.594 107.175 367.819C108.52 367.692 109.839 367.362 111.085 366.839C111.617 366.563 112.083 366.175 112.451 365.701C112.818 365.227 113.078 364.679 113.213 364.095C113.25 363.823 113.229 363.546 113.154 363.282C113.078 363.018 112.948 362.773 112.773 362.562C112.597 362.35 112.38 362.178 112.135 362.054C111.889 361.931 111.621 361.86 111.347 361.846C109.676 361.846 107.959 364.31 107.501 365.729C107.501 365.803 107.305 366.615 107.193 367.213C107.193 366.858 107.193 366.494 107.193 366.158C107.193 364.898 107.277 363.75 107.352 362.723C107.408 362.145 107.464 361.622 107.52 361.127C108.652 360.4 109.666 359.503 110.525 358.467C110.869 357.976 111.102 357.417 111.208 356.827C111.315 356.237 111.292 355.631 111.141 355.051C111.048 354.791 110.901 354.552 110.71 354.352C110.519 354.151 110.288 353.993 110.032 353.888C109.776 353.782 109.501 353.731 109.224 353.739C108.947 353.746 108.675 353.812 108.425 353.931C106.941 354.697 106.559 357.665 106.801 359.149C106.801 359.279 107.38 361.221 107.408 361.202C107.343 361.678 107.277 362.182 107.221 362.733C107.119 363.759 107.016 364.907 106.979 366.177C106.936 367.54 106.97 368.905 107.081 370.265C107.199 371.787 107.452 373.295 107.837 374.773V374.829C107.576 374.418 106.801 373.289 106.736 373.205C105.803 372.085 103.217 370.479 101.677 371.133C101.426 371.248 101.202 371.415 101.019 371.623C100.837 371.831 100.7 372.075 100.619 372.339C100.537 372.603 100.511 372.882 100.544 373.156C100.577 373.431 100.667 373.695 100.809 373.933C101.163 374.419 101.618 374.822 102.144 375.114C102.669 375.406 103.252 375.579 103.852 375.622Z" fill="#263238"/>
<path d="M132.44 367.782C132.44 367.782 132.972 365.841 132.991 365.71C133.196 364.235 132.72 361.267 131.217 360.539C130.965 360.426 130.691 360.368 130.414 360.368C130.138 360.368 129.864 360.426 129.611 360.538C129.359 360.651 129.132 360.816 128.948 361.022C128.763 361.228 128.623 361.47 128.539 361.734C128.403 362.318 128.396 362.924 128.519 363.511C128.641 364.098 128.89 364.65 129.248 365.131C130.176 366.167 131.252 367.06 132.44 367.782Z" fill="#263238"/>
<path d="M73.7335 379.365C74.5618 379.58 75.4169 379.675 76.2722 379.645C76.2722 379.645 75.8895 378.469 75.8522 378.394C75.4602 377.573 74.2095 376.201 73.1922 376.341C73.027 376.372 72.87 376.437 72.7316 376.532C72.5931 376.628 72.4761 376.751 72.3882 376.894C72.3003 377.038 72.2433 377.198 72.2211 377.364C72.1988 377.531 72.2117 377.701 72.2589 377.862C72.3839 378.203 72.5801 378.513 72.8344 378.772C73.0887 379.031 73.3952 379.233 73.7335 379.365Z" fill="#263238"/>
<path d="M91.3831 398.414C91.4593 398.262 91.5025 398.095 91.51 397.925C91.5175 397.754 91.4891 397.585 91.4265 397.426C91.364 397.268 91.2688 397.124 91.1472 397.005C91.0255 396.886 90.8801 396.793 90.7204 396.734C89.7871 396.407 88.2564 397.518 87.7151 398.255C87.7151 398.255 87.5097 398.591 87.3511 398.881H91.0844C91.2143 398.747 91.3158 398.588 91.3831 398.414Z" fill="#263238"/>
<path d="M85.867 393.635C86.533 394.08 87.2633 394.42 88.0323 394.643C87.9576 394.998 87.883 395.353 87.7896 395.689C87.6963 396.025 87.6776 396.146 87.603 396.37C87.5283 396.594 87.4536 396.827 87.3883 397.042C87.2296 397.471 87.071 397.91 86.9123 398.311L86.6883 398.881H87.295L87.435 398.507C87.5843 398.087 87.7243 397.658 87.883 397.201C87.9483 396.977 88.0136 396.753 88.0883 396.519C88.163 396.286 88.2096 396.053 88.2656 395.81C88.4056 395.259 88.5083 394.69 88.6016 394.111C89.3617 394.417 90.1646 394.603 90.9817 394.662C91.3524 394.657 91.7177 394.572 92.0515 394.41C92.3854 394.249 92.6797 394.016 92.9137 393.729C93.0122 393.589 93.08 393.43 93.1127 393.262C93.1455 393.094 93.1423 392.921 93.1036 392.755C93.0648 392.588 92.9912 392.432 92.8877 392.295C92.7842 392.159 92.6531 392.046 92.503 391.965C91.5696 391.498 89.9643 392.366 89.311 393.01L88.639 393.85C88.695 393.505 88.751 393.159 88.7883 392.814C88.919 391.797 89.0123 390.761 89.115 389.734C89.115 389.417 89.1803 389.099 89.2083 388.801C89.9969 389.111 90.8273 389.303 91.6723 389.37C92.0431 389.365 92.4083 389.28 92.7422 389.118C93.0761 388.957 93.3704 388.724 93.6043 388.437C93.7027 388.298 93.7704 388.139 93.8031 387.972C93.8357 387.805 93.8325 387.633 93.7937 387.467C93.7549 387.301 93.6814 387.145 93.5779 387.01C93.4745 386.875 93.3435 386.763 93.1936 386.682C92.2603 386.215 90.655 387.074 90.0016 387.727C90.0016 387.774 89.3576 388.511 89.2176 388.707C89.2923 388.017 89.367 387.326 89.479 386.654C89.6135 385.739 89.81 384.835 90.067 383.947C90.859 384.259 91.6922 384.454 92.5403 384.526C92.9111 384.521 93.2763 384.436 93.6102 384.274C93.9441 384.113 94.2384 383.88 94.4723 383.593C94.5707 383.454 94.6384 383.295 94.6711 383.128C94.7037 382.961 94.7005 382.789 94.6617 382.623C94.6229 382.457 94.5494 382.301 94.4459 382.166C94.3425 382.031 94.2115 381.919 94.0616 381.838C93.1283 381.362 91.523 382.23 90.8696 382.874C90.823 382.93 90.179 383.723 90.0763 383.882C90.0796 383.829 90.0796 383.776 90.0763 383.723C90.3608 382.839 90.7199 381.98 91.1497 381.157C91.383 380.709 91.635 380.279 91.887 379.878C92.6219 380.268 93.4118 380.545 94.2296 380.699C94.5957 380.738 94.9657 380.696 95.3139 380.577C95.6621 380.457 95.9801 380.263 96.2457 380.009C96.3578 379.881 96.4418 379.73 96.4921 379.568C96.5424 379.405 96.558 379.234 96.5377 379.065C96.5175 378.896 96.4619 378.733 96.3746 378.587C96.2873 378.441 96.1702 378.315 96.031 378.217C95.1816 377.647 93.4643 378.329 92.7457 378.907C92.7457 378.907 92.3443 379.29 92.0923 379.561C92.2043 379.374 92.3163 379.187 92.4376 379.019C92.867 378.366 93.2963 377.806 93.679 377.311L94.3043 376.546C95.1322 376.556 95.9568 376.439 96.7497 376.201C97.0938 376.067 97.4048 375.86 97.661 375.594C97.9173 375.328 98.1127 375.009 98.2336 374.661C98.2745 374.495 98.28 374.323 98.2498 374.155C98.2196 373.987 98.1544 373.828 98.0584 373.687C97.9624 373.546 97.8378 373.427 97.6927 373.337C97.5476 373.248 97.3853 373.19 97.2163 373.167C96.199 373.055 94.9857 374.446 94.6123 375.286C94.6123 375.361 94.2016 376.546 94.2296 376.546C94.0336 376.761 93.8283 377.003 93.6137 377.265C93.2123 377.759 92.7643 378.31 92.3256 378.954C91.8375 379.635 91.3917 380.346 90.991 381.082C90.5324 381.901 90.1482 382.76 89.843 383.649C89.843 383.35 89.843 382.51 89.843 382.445C89.731 381.511 88.9657 379.85 87.9763 379.645C87.8084 379.62 87.6371 379.63 87.4734 379.675C87.3097 379.72 87.1572 379.798 87.0255 379.905C86.8938 380.013 86.7858 380.146 86.7085 380.297C86.6312 380.448 86.5861 380.614 86.5763 380.783C86.5913 381.143 86.6822 381.495 86.8431 381.817C87.004 382.138 87.2311 382.422 87.5097 382.65C88.2167 383.114 88.9911 383.467 89.8057 383.695C89.5211 384.613 89.2966 385.548 89.1336 386.495C89.031 387.037 88.9563 387.597 88.8817 388.157C88.8817 387.895 88.8817 387.662 88.8817 387.634C88.7603 386.701 88.0043 385.039 87.015 384.834C86.8466 384.806 86.6743 384.814 86.5094 384.858C86.3444 384.902 86.1907 384.98 86.0583 385.088C85.9259 385.195 85.8179 385.33 85.7415 385.482C85.6651 385.635 85.6219 385.802 85.615 385.973C85.63 386.332 85.7209 386.684 85.8818 387.006C86.0426 387.328 86.2698 387.612 86.5483 387.839C87.2363 388.293 87.9881 388.643 88.779 388.875C88.779 389.09 88.723 389.305 88.7043 389.519C88.5737 390.546 88.4617 391.573 88.3123 392.571C88.2563 392.926 88.2003 393.271 88.135 393.626C88.135 393.393 88.135 393.197 88.135 393.169C88.0136 392.235 87.2483 390.574 86.2683 390.369C86.1004 390.344 85.9291 390.354 85.7654 390.399C85.6017 390.444 85.4491 390.522 85.3175 390.629C85.1858 390.737 85.0778 390.87 85.0005 391.021C84.9232 391.172 84.8781 391.338 84.8683 391.507C84.8517 391.916 84.9338 392.323 85.1076 392.693C85.2814 393.064 85.5419 393.387 85.867 393.635Z" fill="#263238"/>
<path d="M74.3123 384.573C75.1579 384.568 75.9981 384.436 76.8043 384.181C77.052 385.1 77.3639 386.002 77.7376 386.878C77.9523 387.391 78.1949 387.895 78.4376 388.409L78.1389 387.979C77.5416 387.279 75.9736 386.299 75.0309 386.701C74.8766 386.771 74.7389 386.873 74.6266 387.001C74.5142 387.128 74.4298 387.277 74.3788 387.439C74.3278 387.601 74.3113 387.772 74.3304 387.94C74.3495 388.109 74.4037 388.272 74.4896 388.418C74.7055 388.718 74.9845 388.967 75.307 389.148C75.6295 389.328 75.9876 389.436 76.3563 389.463C77.1791 389.467 77.9976 389.345 78.7829 389.099L79.0629 389.678C79.5296 390.611 79.9963 391.545 80.4349 392.478C80.5843 392.805 80.7243 393.131 80.8643 393.411L80.6029 393.038C80.0056 392.347 78.4376 391.367 77.4949 391.769C77.3406 391.839 77.2029 391.942 77.0906 392.069C76.9782 392.196 76.8938 392.345 76.8428 392.507C76.7918 392.669 76.7753 392.84 76.7944 393.008C76.8135 393.177 76.8677 393.34 76.9536 393.486C77.1695 393.786 77.4485 394.035 77.771 394.216C78.0935 394.396 78.4516 394.504 78.8203 394.531C79.6213 394.541 80.4186 394.421 81.1816 394.177C81.3216 394.513 81.4523 394.849 81.5643 395.185C81.6763 395.521 81.7229 395.623 81.7789 395.857L81.9749 396.547C82.0776 396.977 82.1896 397.481 82.2829 397.863C82.3763 398.246 82.4043 398.442 82.4603 398.731C82.3203 398.414 82.0123 397.798 81.9843 397.733C81.4989 396.958 80.1176 395.745 79.1003 395.997C78.937 396.044 78.7856 396.125 78.6558 396.235C78.526 396.345 78.4207 396.481 78.3468 396.634C78.2728 396.787 78.2319 396.954 78.2267 397.124C78.2214 397.294 78.2519 397.463 78.3163 397.621C78.4644 397.926 78.6758 398.196 78.9365 398.414C79.1972 398.631 79.5012 398.79 79.8283 398.881H83.0856C83.0813 398.812 83.0813 398.744 83.0856 398.675C83.2069 398.619 83.8789 398.349 84.4856 398.013C84.8451 398.356 85.2503 398.648 85.6896 398.881H86.6229C86.6789 398.526 86.7349 398.087 86.7349 398.041C86.724 397.236 86.5053 396.449 86.1003 395.754C86.1098 395.664 86.1098 395.573 86.1003 395.483C86.0787 395.315 86.0219 395.152 85.9334 395.007C85.845 394.861 85.727 394.736 85.587 394.639C85.4471 394.542 85.2883 394.476 85.1211 394.445C84.9538 394.413 84.7818 394.417 84.6163 394.457C83.6176 394.718 82.9923 396.454 82.9456 397.369C82.9456 397.425 82.9456 398.013 83.0109 398.386C82.9549 398.171 82.9083 397.957 82.8616 397.733L82.5163 396.398C82.4416 396.174 82.3763 395.95 82.3109 395.717C82.2456 395.483 82.1523 395.259 82.0683 395.026C81.8723 394.494 81.6483 393.953 81.4056 393.421C82.2089 393.263 82.9812 392.977 83.6923 392.571C83.9983 392.366 84.2567 392.097 84.4499 391.783C84.6431 391.469 84.7667 391.117 84.8123 390.751C84.8168 390.581 84.7853 390.411 84.7198 390.253C84.6542 390.096 84.5561 389.953 84.4319 389.836C84.3077 389.719 84.1602 389.629 83.9989 389.573C83.8377 389.517 83.6664 389.495 83.4963 389.51C82.4789 389.613 81.6296 391.237 81.4056 392.133C81.4056 392.189 81.3403 392.851 81.3123 393.215C81.1629 392.898 81.0229 392.571 80.8643 392.282C80.4069 391.349 79.9309 390.415 79.4363 389.538C79.2869 389.258 79.1376 388.978 78.9976 388.698C79.827 388.525 80.626 388.229 81.3683 387.821C81.6747 387.616 81.9329 387.348 82.1247 387.033C82.3166 386.719 82.4375 386.367 82.4789 386.001C82.487 385.831 82.4594 385.662 82.3979 385.503C82.3364 385.345 82.2423 385.201 82.1218 385.082C82.0013 384.962 81.857 384.869 81.6982 384.809C81.5395 384.748 81.3698 384.722 81.2003 384.731C80.1829 384.843 79.3336 386.467 79.1189 387.363C79.1189 387.429 79.0163 388.381 79.0069 388.614C78.6803 387.998 78.3723 387.382 78.0736 386.747C77.6793 385.926 77.3364 385.082 77.0469 384.218C77.8843 384.034 78.6874 383.719 79.4269 383.285C79.736 383.082 79.9966 382.814 80.1902 382.5C80.3838 382.185 80.5056 381.832 80.5469 381.465C80.5515 381.294 80.52 381.124 80.4544 380.967C80.3889 380.809 80.2908 380.667 80.1666 380.55C80.0424 380.432 79.8948 380.343 79.7336 380.287C79.5724 380.23 79.4011 380.209 79.2309 380.223C78.2136 380.335 77.3643 381.959 77.1403 382.855C77.1403 382.921 77.0376 383.947 77.0376 384.134L76.9816 383.975C76.731 383.083 76.5561 382.172 76.4589 381.25C76.4029 380.737 76.3843 380.251 76.3656 379.775C77.1934 379.69 78.0044 379.486 78.7736 379.169C79.101 378.999 79.3876 378.76 79.6132 378.468C79.8389 378.176 79.9983 377.839 80.0803 377.479C80.104 377.31 80.0918 377.138 80.0444 376.974C79.9971 376.81 79.9157 376.658 79.8056 376.528C79.6955 376.398 79.5592 376.292 79.4055 376.218C79.2518 376.144 79.0842 376.103 78.9136 376.098C77.8869 376.098 76.8323 377.61 76.5429 378.487L76.3563 379.421C76.3563 379.206 76.3563 378.982 76.3563 378.777C76.3563 378.002 76.4123 377.293 76.4589 376.667C76.4589 376.313 76.5243 375.986 76.5616 375.687C77.2605 375.234 77.8893 374.68 78.4283 374.045C78.6403 373.743 78.7836 373.399 78.8481 373.036C78.9126 372.673 78.8967 372.301 78.8016 371.945C78.7453 371.784 78.6553 371.636 78.5378 371.513C78.4203 371.389 78.2778 371.292 78.1198 371.227C77.9619 371.163 77.792 371.133 77.6215 371.139C77.451 371.145 77.2838 371.188 77.1309 371.263C76.1976 371.73 75.9829 373.569 76.1323 374.465C76.1323 374.549 76.4963 375.743 76.5056 375.734C76.5056 376.023 76.4309 376.341 76.3936 376.667C76.3283 377.293 76.2629 378.011 76.2443 378.786C76.2161 379.623 76.2379 380.462 76.3096 381.297C76.3774 382.243 76.5336 383.18 76.7763 384.097L76.0949 383.098C75.4976 382.407 73.9296 381.427 72.9869 381.819C72.8323 381.891 72.6944 381.994 72.5821 382.122C72.4697 382.25 72.3853 382.4 72.3343 382.563C72.2833 382.725 72.2669 382.897 72.2861 383.066C72.3052 383.236 72.3596 383.399 72.4456 383.546C72.6633 383.843 72.9432 384.088 73.2656 384.265C73.588 384.443 73.9452 384.548 74.3123 384.573Z" fill="#263238"/>
<path d="M91.8866 379.757C91.8866 379.757 92.2133 378.562 92.232 378.487C92.3533 377.554 92.064 375.753 91.14 375.305C90.9846 375.236 90.8166 375.201 90.6468 375.201C90.4769 375.201 90.3089 375.236 90.1535 375.305C89.9981 375.373 89.8586 375.473 89.744 375.598C89.6295 375.724 89.5423 375.872 89.488 376.033C89.4054 376.392 89.4019 376.765 89.4776 377.126C89.5534 377.487 89.7066 377.827 89.9266 378.123C90.4972 378.76 91.1575 379.31 91.8866 379.757Z" fill="#263238"/>
<path d="M561.755 379.365C562.583 379.581 563.438 379.675 564.293 379.645C564.293 379.645 563.901 378.469 563.873 378.394C563.472 377.573 562.221 376.201 561.213 376.341C561.049 376.374 560.894 376.441 560.757 376.537C560.62 376.633 560.504 376.756 560.417 376.899C560.329 377.042 560.272 377.201 560.248 377.366C560.225 377.532 560.236 377.701 560.28 377.862C560.406 378.202 560.603 378.512 560.857 378.771C561.111 379.03 561.417 379.232 561.755 379.365Z" fill="#263238"/>
<path d="M579.451 398.414C579.525 398.261 579.567 398.094 579.573 397.923C579.579 397.753 579.55 397.584 579.487 397.425C579.423 397.267 579.328 397.124 579.206 397.005C579.084 396.886 578.939 396.794 578.779 396.734C577.846 396.407 576.324 397.518 575.783 398.255C575.783 398.255 575.578 398.591 575.41 398.881H579.143C579.273 398.745 579.378 398.587 579.451 398.414Z" fill="#263238"/>
<path d="M573.944 393.635C574.61 394.082 575.34 394.422 576.11 394.643C576.026 394.998 575.96 395.353 575.867 395.689C575.774 396.025 575.755 396.146 575.68 396.37C575.606 396.594 575.531 396.827 575.456 397.042C575.307 397.471 575.148 397.91 574.99 398.311L574.766 398.881H575.363L575.503 398.507C575.662 398.087 575.802 397.658 575.96 397.201C576.026 396.977 576.091 396.753 576.166 396.519C576.24 396.286 576.278 396.053 576.343 395.81C576.474 395.259 576.586 394.69 576.679 394.111C577.439 394.418 578.242 394.604 579.059 394.662C579.43 394.657 579.795 394.571 580.129 394.409C580.462 394.248 580.757 394.016 580.991 393.729C581.088 393.588 581.155 393.429 581.187 393.262C581.219 393.094 581.215 392.922 581.177 392.756C581.138 392.589 581.065 392.433 580.962 392.297C580.859 392.161 580.729 392.048 580.58 391.965C579.647 391.498 578.032 392.366 577.388 393.01C577.388 393.01 576.931 393.57 576.716 393.85C576.763 393.505 576.819 393.159 576.866 392.814C576.996 391.797 577.09 390.761 577.192 389.734C577.192 389.417 577.258 389.099 577.286 388.801C578.074 389.113 578.905 389.304 579.75 389.37C580.12 389.365 580.485 389.279 580.819 389.117C581.153 388.956 581.447 388.724 581.682 388.437C581.779 388.297 581.845 388.139 581.877 387.972C581.909 387.805 581.905 387.633 581.867 387.468C581.828 387.303 581.755 387.147 581.652 387.012C581.55 386.876 581.42 386.764 581.271 386.682C580.338 386.215 578.723 387.074 578.079 387.727C578.079 387.774 577.435 388.511 577.295 388.707C577.37 388.017 577.444 387.326 577.547 386.654C577.689 385.74 577.889 384.836 578.144 383.947C578.936 384.261 579.769 384.456 580.618 384.526C580.988 384.521 581.353 384.435 581.687 384.273C582.021 384.112 582.315 383.88 582.55 383.593C582.647 383.453 582.713 383.295 582.745 383.128C582.777 382.961 582.773 382.789 582.735 382.624C582.696 382.459 582.623 382.303 582.52 382.168C582.418 382.032 582.288 381.92 582.139 381.838C581.206 381.362 579.591 382.23 578.947 382.874C578.891 382.93 578.256 383.723 578.154 383.882C578.148 383.829 578.148 383.776 578.154 383.723C578.434 382.837 578.793 381.978 579.227 381.157C579.46 380.709 579.712 380.279 579.964 379.878C580.697 380.267 581.483 380.544 582.298 380.699C582.665 380.739 583.037 380.698 583.387 380.579C583.737 380.459 584.056 380.265 584.323 380.009C584.435 379.881 584.519 379.73 584.57 379.568C584.62 379.405 584.635 379.234 584.615 379.065C584.595 378.896 584.539 378.733 584.452 378.587C584.365 378.441 584.248 378.315 584.108 378.217C583.259 377.647 581.542 378.329 580.823 378.907C580.823 378.907 580.422 379.29 580.16 379.561L580.506 379.019C580.935 378.366 581.374 377.806 581.756 377.311L582.382 376.546C583.21 376.556 584.034 376.439 584.827 376.201C585.169 376.065 585.478 375.857 585.733 375.592C585.987 375.326 586.181 375.008 586.302 374.661C586.344 374.496 586.351 374.324 586.322 374.156C586.293 373.988 586.229 373.828 586.134 373.687C586.038 373.546 585.914 373.427 585.769 373.337C585.625 373.248 585.463 373.19 585.294 373.167C584.267 373.055 583.063 374.446 582.69 375.286C582.69 375.361 582.279 376.546 582.298 376.546C582.102 376.761 581.896 377.003 581.682 377.265C581.28 377.759 580.832 378.31 580.384 378.954C579.903 379.64 579.457 380.35 579.05 381.082C578.598 381.904 578.217 382.762 577.911 383.649C577.911 383.35 577.911 382.51 577.911 382.445C577.799 381.511 577.034 379.85 576.044 379.645C575.876 379.618 575.704 379.627 575.54 379.672C575.376 379.716 575.223 379.795 575.091 379.902C574.959 380.009 574.851 380.143 574.774 380.295C574.697 380.447 574.653 380.613 574.644 380.783C574.661 381.142 574.752 381.494 574.913 381.816C575.074 382.137 575.3 382.422 575.578 382.65C576.289 383.113 577.066 383.465 577.883 383.695C577.595 384.613 577.368 385.548 577.202 386.495C577.108 387.037 577.024 387.597 576.95 388.157C576.95 387.895 576.95 387.662 576.95 387.634C576.828 386.701 576.072 385.039 575.083 384.834C574.915 384.806 574.742 384.814 574.577 384.858C574.412 384.902 574.259 384.98 574.126 385.088C573.994 385.195 573.886 385.33 573.81 385.482C573.733 385.635 573.69 385.802 573.683 385.973C573.694 386.333 573.783 386.686 573.944 387.009C574.105 387.331 574.335 387.615 574.616 387.839C575.302 388.297 576.055 388.646 576.847 388.875L576.763 389.519C576.642 390.546 576.52 391.573 576.38 392.571C576.324 392.926 576.259 393.271 576.203 393.626C576.203 393.393 576.203 393.197 576.203 393.169C576.091 392.235 575.326 390.574 574.336 390.369C574.168 390.342 573.997 390.351 573.832 390.396C573.668 390.44 573.515 390.519 573.383 390.626C573.251 390.733 573.143 390.867 573.066 391.019C572.989 391.171 572.945 391.337 572.936 391.507C572.921 391.917 573.004 392.324 573.18 392.695C573.355 393.065 573.618 393.388 573.944 393.635Z" fill="#263238"/>
<path d="M562.371 384.573C563.22 384.568 564.063 384.436 564.872 384.181C565.124 385.099 565.436 386 565.806 386.878C566.03 387.391 566.263 387.895 566.515 388.409L566.216 387.979C565.61 387.279 564.051 386.299 563.108 386.701C562.954 386.771 562.816 386.874 562.704 387.001C562.592 387.128 562.507 387.277 562.456 387.439C562.405 387.601 562.389 387.772 562.408 387.94C562.427 388.109 562.481 388.272 562.567 388.418C562.782 388.719 563.061 388.969 563.383 389.149C563.706 389.33 564.065 389.437 564.434 389.463C565.256 389.468 566.075 389.345 566.86 389.099C566.963 389.286 567.056 389.482 567.15 389.678C567.616 390.611 568.083 391.545 568.512 392.478C568.671 392.805 568.802 393.131 568.942 393.411L568.68 393.038C568.083 392.347 566.524 391.367 565.572 391.769C565.419 391.84 565.282 391.943 565.171 392.071C565.059 392.198 564.976 392.348 564.926 392.509C564.876 392.671 564.86 392.842 564.88 393.01C564.899 393.178 564.954 393.34 565.04 393.486C565.255 393.787 565.534 394.037 565.857 394.217C566.179 394.398 566.538 394.505 566.907 394.531C567.708 394.541 568.505 394.421 569.268 394.177C569.399 394.513 569.539 394.849 569.651 395.185C569.763 395.521 569.81 395.623 569.866 395.857L570.062 396.547C570.164 396.977 570.276 397.481 570.37 397.863C570.463 398.246 570.491 398.442 570.547 398.731C570.398 398.414 570.099 397.798 570.062 397.733C569.576 396.958 568.195 395.745 567.187 395.997C567.023 396.043 566.87 396.124 566.74 396.233C566.609 396.342 566.502 396.478 566.428 396.631C566.353 396.785 566.311 396.952 566.305 397.122C566.299 397.293 566.329 397.463 566.394 397.621C566.545 397.926 566.758 398.195 567.02 398.412C567.282 398.63 567.587 398.789 567.915 398.881H571.2C571.189 398.811 571.174 398.743 571.154 398.675C571.275 398.619 571.956 398.349 572.563 398.013C572.923 398.356 573.328 398.648 573.767 398.881H574.7C574.7 398.526 574.812 398.087 574.812 398.041C574.798 397.237 574.579 396.45 574.178 395.754C574.187 395.664 574.187 395.573 574.178 395.483C574.158 395.314 574.102 395.151 574.014 395.005C573.926 394.858 573.807 394.733 573.667 394.635C573.527 394.538 573.367 394.472 573.2 394.441C573.032 394.411 572.859 394.416 572.694 394.457C571.704 394.718 571.079 396.454 571.032 397.369C571.032 397.425 571.032 398.013 571.088 398.386C571.042 398.171 570.995 397.957 570.939 397.733C570.836 397.303 570.724 396.865 570.594 396.398C570.528 396.174 570.463 395.95 570.388 395.717C570.314 395.483 570.23 395.259 570.155 395.026C569.959 394.494 569.735 393.953 569.492 393.421C570.295 393.262 571.067 392.975 571.779 392.571C572.085 392.367 572.343 392.098 572.535 391.784C572.726 391.469 572.848 391.117 572.89 390.751C572.896 390.581 572.865 390.412 572.801 390.254C572.736 390.096 572.639 389.954 572.516 389.837C572.392 389.719 572.245 389.63 572.084 389.573C571.924 389.517 571.753 389.495 571.583 389.51C570.566 389.613 569.716 391.237 569.492 392.133C569.492 392.189 569.418 392.851 569.399 393.215C569.25 392.898 569.11 392.571 568.951 392.282C568.494 391.349 568.018 390.415 567.514 389.538C567.374 389.258 567.224 388.978 567.075 388.698C567.905 388.528 568.705 388.232 569.446 387.821C569.753 387.618 570.013 387.35 570.205 387.035C570.397 386.72 570.517 386.367 570.556 386.001C570.562 385.83 570.532 385.661 570.467 385.503C570.403 385.346 570.306 385.203 570.182 385.086C570.059 384.969 569.912 384.879 569.751 384.823C569.59 384.766 569.419 384.745 569.25 384.759C568.232 384.871 567.383 386.495 567.159 387.391C567.159 387.457 567.066 388.409 567.056 388.642C566.73 388.026 566.412 387.41 566.123 386.775C565.732 385.937 565.398 385.073 565.124 384.19C565.947 384.011 566.737 383.705 567.467 383.285C567.775 383.082 568.034 382.814 568.226 382.499C568.418 382.184 568.538 381.831 568.578 381.465C568.584 381.294 568.553 381.125 568.489 380.967C568.424 380.81 568.327 380.667 568.204 380.55C568.08 380.433 567.933 380.343 567.772 380.287C567.612 380.23 567.441 380.209 567.271 380.223C566.254 380.335 565.404 381.959 565.18 382.855C565.18 382.921 565.078 383.947 565.068 384.134C565.068 384.078 565.068 384.031 565.022 383.975C564.767 383.084 564.592 382.172 564.499 381.25C564.443 380.737 564.415 380.251 564.406 379.775C565.233 379.689 566.044 379.485 566.814 379.169C567.14 378.997 567.426 378.758 567.651 378.466C567.877 378.175 568.037 377.838 568.12 377.479C568.143 377.311 568.129 377.139 568.081 376.976C568.033 376.812 567.952 376.661 567.842 376.531C567.732 376.401 567.597 376.295 567.444 376.221C567.291 376.146 567.124 376.104 566.954 376.098C565.927 376.098 564.863 377.61 564.583 378.487L564.396 379.421C564.396 379.206 564.396 378.982 564.396 378.777C564.396 378.002 564.396 377.293 564.499 376.667C564.499 376.313 564.564 375.986 564.592 375.687C565.295 375.239 565.925 374.685 566.459 374.045C566.673 373.744 566.818 373.4 566.884 373.037C566.95 372.674 566.935 372.301 566.842 371.945C566.784 371.785 566.693 371.638 566.576 371.516C566.458 371.393 566.316 371.296 566.158 371.232C566.001 371.168 565.831 371.137 565.661 371.143C565.491 371.148 565.324 371.189 565.171 371.263C564.238 371.73 564.023 373.569 564.172 374.465C564.172 374.549 564.527 375.743 564.546 375.734C564.546 376.023 564.462 376.341 564.424 376.667C564.368 377.293 564.303 378.011 564.284 378.786C564.258 379.623 564.276 380.461 564.34 381.297C564.417 382.241 564.574 383.178 564.807 384.097C564.648 383.845 564.172 383.163 564.135 383.098C563.528 382.407 561.97 381.427 561.027 381.819C560.872 381.891 560.734 381.994 560.622 382.122C560.51 382.25 560.425 382.4 560.374 382.563C560.323 382.725 560.307 382.897 560.326 383.066C560.345 383.236 560.4 383.399 560.486 383.546C560.704 383.846 560.987 384.093 561.313 384.271C561.639 384.449 562 384.552 562.371 384.573Z" fill="#263238"/>
<path d="M579.955 379.757C579.955 379.757 580.282 378.562 580.291 378.487C580.422 377.554 580.132 375.753 579.208 375.305C579.053 375.236 578.885 375.201 578.715 375.201C578.545 375.201 578.377 375.236 578.222 375.305C578.066 375.373 577.927 375.473 577.812 375.598C577.698 375.724 577.611 375.872 577.556 376.033C577.474 376.392 577.47 376.765 577.546 377.126C577.622 377.487 577.775 377.827 577.995 378.123C578.566 378.76 579.226 379.31 579.955 379.757Z" fill="#263238"/>
<path d="M64.7545 151.127C64.7545 151.127 106.503 155.253 127.652 181.134C127.652 181.134 150.005 151.155 190.185 151.771C199.997 139.936 206.245 125.557 208.201 110.309C210.157 95.0605 207.742 79.57 201.236 65.6413C194.729 51.7126 184.4 39.9187 171.451 31.633C158.501 23.3472 143.464 18.9106 128.091 18.8397C112.718 18.7687 97.6409 23.0664 84.6156 31.2323C71.5902 39.3982 61.1526 51.0962 54.5181 64.9643C47.8835 78.8324 45.3251 94.2999 47.1406 109.566C48.9562 124.832 55.0711 139.267 64.7732 151.193L64.7545 151.127Z" fill="#FC6736"/>
<path opacity="0.4" d="M64.7545 151.127C64.7545 151.127 106.503 155.253 127.652 181.134C127.652 181.134 150.005 151.155 190.185 151.771C199.997 139.936 206.245 125.557 208.201 110.309C210.157 95.0605 207.742 79.57 201.236 65.6413C194.729 51.7126 184.4 39.9187 171.451 31.633C158.501 23.3472 143.464 18.9106 128.091 18.8397C112.718 18.7687 97.6409 23.0664 84.6156 31.2323C71.5902 39.3982 61.1526 51.0962 54.5181 64.9643C47.8835 78.8324 45.3251 94.2999 47.1406 109.566C48.9562 124.832 55.0711 139.267 64.7732 151.193L64.7545 151.127Z" fill="white"/>
<path d="M167.851 104.218C167.851 104.218 142.893 110.135 129.117 130.202L128.333 101.017L128.389 101.399C128.389 101.399 142.483 76.0406 167.851 68.2846C167.851 68.2846 141.717 74.482 128.193 95.6873L126.271 56.394L125.683 112.711C112.411 92.542 88.228 86.578 88.228 86.578C109.592 93.3446 122.659 113.523 125.645 118.545L125.449 147.571C112.131 127.682 88.228 121.811 88.228 121.811C109.079 128.41 122.033 147.795 125.412 153.386L124.861 399.357H131.908L130.2 170.326C134.745 163.447 147.756 146.265 167.851 140.123C167.851 140.123 143.985 145.789 130.051 164.801L129.276 135.867C132.701 130.351 146.141 110.826 167.851 104.218Z" fill="#263238"/>
<path d="M167.851 104.218C167.851 104.218 142.893 110.135 129.117 130.202L128.333 101.017L128.389 101.399C128.389 101.399 142.483 76.0406 167.851 68.2846C167.851 68.2846 141.717 74.482 128.193 95.6873L126.271 56.394L125.683 112.711C112.411 92.542 88.228 86.578 88.228 86.578C109.592 93.3446 122.659 113.523 125.645 118.545L125.449 147.571C112.131 127.682 88.228 121.811 88.228 121.811C109.079 128.41 122.033 147.795 125.412 153.386L124.861 399.357H131.908L130.2 170.326C134.745 163.447 147.756 146.265 167.851 140.123C167.851 140.123 143.985 145.789 130.051 164.801L129.276 135.867C132.701 130.351 146.141 110.826 167.851 104.218Z" fill="#263238"/>
<path d="M32.7879 284.958C32.7879 284.958 66.8173 288.327 84.1213 309.43C84.1213 309.43 102.349 284.986 135.081 285.49C143.078 275.841 148.169 264.118 149.762 251.688C151.355 239.257 149.384 226.63 144.08 215.276C138.775 203.922 130.354 194.308 119.798 187.554C109.242 180.799 96.9839 177.183 84.4519 177.124C71.9198 177.066 59.629 180.569 49.0102 187.224C38.3915 193.88 29.8816 203.415 24.4714 214.719C19.0612 226.023 16.9732 238.632 18.4505 251.077C19.9278 263.521 24.9096 275.291 32.8159 285.014L32.7879 284.958Z" fill="#FC6736"/>
<path opacity="0.4" d="M32.7879 284.958C32.7879 284.958 66.8173 288.327 84.1213 309.43C84.1213 309.43 102.349 284.986 135.081 285.49C143.078 275.841 148.169 264.118 149.762 251.688C151.355 239.257 149.384 226.63 144.08 215.276C138.775 203.922 130.354 194.308 119.798 187.554C109.242 180.799 96.9839 177.183 84.4519 177.124C71.9198 177.066 59.629 180.569 49.0102 187.224C38.3915 193.88 29.8816 203.415 24.4714 214.719C19.0612 226.023 16.9732 238.632 18.4505 251.077C19.9278 263.521 24.9096 275.291 32.8159 285.014L32.7879 284.958Z" fill="white"/>
<path d="M51.9214 261.018C68.9267 266.403 79.4827 282.205 82.2361 286.769L81.9934 399.226H86.8841L86.1467 300.619C89.8801 295.019 100.464 281.019 116.844 275.998C116.844 275.998 97.3841 280.609 86.0441 296.111L85.4094 272.498C88.2094 268.009 99.1667 252.105 116.863 246.691C116.863 246.691 96.5161 251.517 85.2881 267.878L84.6441 244.078V244.395C84.6441 244.395 96.1334 223.685 116.844 217.394C116.844 217.394 95.5454 222.453 84.5041 239.738L82.9454 207.706L82.4601 253.617C71.6427 237.171 51.9214 232.327 51.9214 232.327C69.3374 237.843 79.9961 254.298 82.4321 258.395L82.2734 282.065C71.4094 265.853 51.9214 261.018 51.9214 261.018Z" fill="#263238"/>
<path d="M51.9214 261.018C68.9267 266.403 79.4827 282.205 82.2361 286.769L81.9934 399.226H86.8841L86.1467 300.619C89.8801 295.019 100.464 281.019 116.844 275.998C116.844 275.998 97.3841 280.609 86.0441 296.111L85.4094 272.498C88.2094 268.009 99.1667 252.105 116.863 246.691C116.863 246.691 96.5161 251.517 85.2881 267.878L84.6441 244.078V244.395C84.6441 244.395 96.1334 223.685 116.844 217.394C116.844 217.394 95.5454 222.453 84.5041 239.738L82.9454 207.706L82.4601 253.617C71.6427 237.171 51.9214 232.327 51.9214 232.327C69.3374 237.843 79.9961 254.298 82.4321 258.395L82.2734 282.065C71.4094 265.853 51.9214 261.018 51.9214 261.018Z" fill="#263238"/>
<path d="M523.003 284.958C523.003 284.958 557.041 288.327 574.289 309.43C574.289 309.43 592.517 284.986 625.249 285.49C633.251 275.84 638.346 264.116 639.942 251.682C641.539 239.249 639.57 226.618 634.265 215.26C628.961 203.902 620.539 194.285 609.98 187.528C599.421 180.771 587.16 177.153 574.625 177.095C562.089 177.036 549.795 180.54 539.174 187.198C528.553 193.857 520.042 203.395 514.632 214.703C509.222 226.011 507.136 238.623 508.616 251.071C510.096 263.519 515.082 275.29 522.993 285.014L523.003 284.958Z" fill="#FC6736"/>
<path opacity="0.4" d="M523.003 284.958C523.003 284.958 557.041 288.327 574.289 309.43C574.289 309.43 592.517 284.986 625.249 285.49C633.251 275.84 638.346 264.116 639.942 251.682C641.539 239.249 639.57 226.618 634.265 215.26C628.961 203.902 620.539 194.285 609.98 187.528C599.421 180.771 587.16 177.153 574.625 177.095C562.089 177.036 549.795 180.54 539.174 187.198C528.553 193.857 520.042 203.395 514.632 214.703C509.222 226.011 507.136 238.623 508.616 251.071C510.096 263.519 515.082 275.29 522.993 285.014L523.003 284.958Z" fill="white"/>
<path d="M542.146 261.018C559.142 266.403 569.707 282.205 572.46 286.769L572.208 399.226H577.099L576.371 300.582C580.104 294.982 590.679 280.982 607.059 275.961C607.059 275.961 587.608 280.571 576.259 296.074L575.615 272.461C578.415 267.971 589.372 252.067 607.068 246.654C607.068 246.654 586.721 251.479 575.493 267.841L574.849 244.041L574.896 244.358C574.896 244.358 586.386 223.675 607.068 217.357C607.068 217.357 585.779 222.415 574.737 239.701L573.179 207.669L572.693 253.579C561.867 237.134 542.155 232.29 542.155 232.29C559.571 237.806 570.23 254.261 572.656 258.358L572.498 282.027C561.634 265.853 542.146 261.018 542.146 261.018Z" fill="#263238"/>
<path d="M542.146 261.018C559.142 266.403 569.707 282.205 572.46 286.769L572.208 399.226H577.099L576.371 300.582C580.104 294.982 590.679 280.982 607.059 275.961C607.059 275.961 587.608 280.571 576.259 296.074L575.615 272.461C578.415 267.971 589.372 252.067 607.068 246.654C607.068 246.654 586.721 251.479 575.493 267.841L574.849 244.041L574.896 244.358C574.896 244.358 586.386 223.675 607.068 217.357C607.068 217.357 585.779 222.415 574.737 239.701L573.179 207.669L572.693 253.579C561.867 237.134 542.155 232.29 542.155 232.29C559.571 237.806 570.23 254.261 572.656 258.358L572.498 282.027C561.634 265.853 542.146 261.018 542.146 261.018Z" fill="#263238"/>
<path d="M472.958 134.299L439.32 167.937" stroke="#263238" stroke-width="0.933333" stroke-linecap="round" stroke-linejoin="round"/>
<path d="M434.663 172.594L438.546 163.345L439.675 167.582L443.912 168.711L434.663 172.594Z" fill="#263238"/>
<path d="M490.579 140.991L474.441 168.721" stroke="#263238" stroke-width="0.933333" stroke-linecap="round" stroke-linejoin="round"/>
<path d="M471.128 174.414L472.519 164.483L474.694 168.301H479.08L471.128 174.414Z" fill="#263238"/>
<path d="M480.247 103.303L375.826 168.497" stroke="#263238" stroke-width="0.933333" stroke-linecap="round" stroke-linejoin="round"/>
<path d="M370.235 171.987L376.106 163.849L376.246 168.235L380.119 170.289L370.235 171.987Z" fill="#263238"/>
<path d="M523.514 116.006C539.946 112.588 550.496 96.4965 547.078 80.0646C543.661 63.6327 527.569 53.0828 511.137 56.5006C494.705 59.9184 484.155 76.0098 487.573 92.4417C490.991 108.874 507.083 119.424 523.514 116.006Z" fill="#FC6736" stroke="#263238" stroke-width="0.933333" stroke-miterlimit="10"/>
<path d="M517.328 33.4058V47.9938" stroke="#263238" stroke-width="0.933333" stroke-miterlimit="10"/>
<path d="M517.328 124.574V139.162" stroke="#263238" stroke-width="0.933333" stroke-miterlimit="10"/>
<path d="M570.201 86.2886H555.613" stroke="#263238" stroke-width="0.933333" stroke-miterlimit="10"/>
<path d="M479.033 86.2886H464.445" stroke="#263238" stroke-width="0.933333" stroke-miterlimit="10"/>
<path d="M554.717 48.89L544.404 59.2126" stroke="#263238" stroke-width="0.933333" stroke-miterlimit="10"/>
<path d="M490.252 113.365L479.929 123.678" stroke="#263238" stroke-width="0.933333" stroke-miterlimit="10"/>
<path d="M479.929 48.89L490.252 59.2126" stroke="#263238" stroke-width="0.933333" stroke-miterlimit="10"/>
<path d="M544.404 113.365L554.717 123.678" stroke="#263238" stroke-width="0.933333" stroke-miterlimit="10"/>
<path d="M538.44 298.921H150.024V398.853H538.44V298.921Z" fill="white"/>
<path opacity="0.31" d="M538.44 298.921H150.024V316.71H538.44V298.921Z" fill="black"/>
<path d="M538.44 298.921H150.024V398.853H538.44V298.921Z" stroke="#263238" stroke-width="0.933333" stroke-linecap="round" stroke-linejoin="round"/>
<path d="M542.425 298.921H146.048V303.494H542.425V298.921Z" fill="white" stroke="#263238" stroke-width="0.933333" stroke-linecap="round" stroke-linejoin="round"/>
<path d="M543.471 298.995H141.801L175.271 184.233H509.992L543.471 298.995Z" fill="#263238" stroke="#263238" stroke-width="0.933333" stroke-linecap="round" stroke-linejoin="round"/>
<path d="M222.497 280.861H162.101L185.089 195.601L238.093 195.825L222.497 280.861Z" fill="#FC6736" stroke="white" stroke-width="0.933333" stroke-miterlimit="10"/>
<path d="M198.137 195.769L177.044 280.711" stroke="white" stroke-width="0.933333" stroke-miterlimit="10"/>
<path d="M211.839 195.825L192.649 280.711" stroke="white" stroke-width="0.933333" stroke-miterlimit="10"/>
<path d="M225.521 195.881L208.227 280.711" stroke="white" stroke-width="0.933333" stroke-miterlimit="10"/>
<path d="M181.991 207.426L236.329 207.622" stroke="white" stroke-width="0.933333" stroke-miterlimit="10"/>
<path d="M178.341 220.969L233.856 221.127" stroke="white" stroke-width="0.933333" stroke-miterlimit="10"/>
<path d="M174.524 235.109L231.28 235.23" stroke="white" stroke-width="0.933333" stroke-miterlimit="10"/>
<path d="M170.548 249.883L228.592 249.977" stroke="white" stroke-width="0.933333" stroke-miterlimit="10"/>
<path d="M166.376 265.349L225.773 265.395" stroke="white" stroke-width="0.933333" stroke-miterlimit="10"/>
<path d="M293.048 280.861H233.072L247.38 195.862L300.057 196.077L293.048 280.861Z" fill="#FC6736" stroke="white" stroke-width="0.933333" stroke-miterlimit="10"/>
<path d="M260.362 196.03L247.893 280.711" stroke="white" stroke-width="0.933333" stroke-miterlimit="10"/>
<path d="M273.98 196.086L263.396 280.711" stroke="white" stroke-width="0.933333" stroke-miterlimit="10"/>
<path d="M287.579 196.142L278.871 280.711" stroke="white" stroke-width="0.933333" stroke-miterlimit="10"/>
<path d="M245.476 207.65L299.488 207.846" stroke="white" stroke-width="0.933333" stroke-miterlimit="10"/>
<path d="M243.208 221.155L298.377 221.314" stroke="white" stroke-width="0.933333" stroke-miterlimit="10"/>
<path d="M240.837 235.258L297.22 235.379" stroke="white" stroke-width="0.933333" stroke-miterlimit="10"/>
<path d="M238.364 249.986L296.016 250.079" stroke="white" stroke-width="0.933333" stroke-miterlimit="10"/>
<path d="M235.769 265.405L294.756 265.451" stroke="white" stroke-width="0.933333" stroke-miterlimit="10"/>
<path d="M461.785 280.861H522.172L499.184 195.601L446.189 195.825L461.785 280.861Z" fill="#FC6736" stroke="white" stroke-width="0.933333" stroke-miterlimit="10"/>
<path d="M486.136 195.769L507.229 280.711" stroke="white" stroke-width="0.933333" stroke-miterlimit="10"/>
<path d="M472.435 195.825L491.624 280.711" stroke="white" stroke-width="0.933333" stroke-miterlimit="10"/>
<path d="M458.761 195.881L476.047 280.711" stroke="white" stroke-width="0.933333" stroke-miterlimit="10"/>
<path d="M502.292 207.426L447.944 207.622" stroke="white" stroke-width="0.933333" stroke-miterlimit="10"/>
<path d="M505.942 220.969L450.417 221.127" stroke="white" stroke-width="0.933333" stroke-miterlimit="10"/>
<path d="M509.749 235.109L452.993 235.23" stroke="white" stroke-width="0.933333" stroke-miterlimit="10"/>
<path d="M513.734 249.883L455.69 249.977" stroke="white" stroke-width="0.933333" stroke-miterlimit="10"/>
<path d="M517.897 265.349L458.509 265.395" stroke="white" stroke-width="0.933333" stroke-miterlimit="10"/>
<path d="M391.225 280.861H451.201L436.893 195.862L384.216 196.077L391.225 280.861Z" fill="#FC6736" stroke="white" stroke-width="0.933333" stroke-miterlimit="10"/>
<path d="M423.92 196.03L436.38 280.711" stroke="white" stroke-width="0.933333" stroke-miterlimit="10"/>
<path d="M410.303 196.086L420.887 280.711" stroke="white" stroke-width="0.933333" stroke-miterlimit="10"/>
<path d="M396.704 196.142L405.412 280.711" stroke="white" stroke-width="0.933333" stroke-miterlimit="10"/>
<path d="M438.797 207.65L384.794 207.846" stroke="white" stroke-width="0.933333" stroke-miterlimit="10"/>
<path d="M441.065 221.155L385.896 221.314" stroke="white" stroke-width="0.933333" stroke-miterlimit="10"/>
<path d="M443.436 235.258L387.053 235.379" stroke="white" stroke-width="0.933333" stroke-miterlimit="10"/>
<path d="M445.919 249.986L388.257 250.079" stroke="white" stroke-width="0.933333" stroke-miterlimit="10"/>
<path d="M448.504 265.405L389.517 265.451" stroke="white" stroke-width="0.933333" stroke-miterlimit="10"/>
<path d="M321.822 316.701H314.318V329.702H321.822V316.701Z" fill="#CCCCCC"/>
<path d="M321.822 332.437H314.318V344.075H321.822V332.437Z" fill="#CCCCCC"/>
<path d="M321.822 346.801H314.318V358.439H321.822V346.801Z" fill="#CCCCCC"/>
<path d="M321.822 361.174H314.318V376.098H321.822V361.174Z" fill="#CCCCCC"/>
<path d="M312.405 361.174H303.361V376.098H312.405V361.174Z" fill="#CCCCCC"/>
<path d="M312.405 346.801H303.361V358.439H312.405V346.801Z" fill="#CCCCCC"/>
<path d="M312.405 332.437H303.361V344.075H312.405V332.437Z" fill="#CCCCCC"/>
<path d="M312.405 316.701H303.361V329.702H312.405V316.701Z" fill="#CCCCCC"/>
<path d="M384.151 316.701H376.637V329.702H384.151V316.701Z" fill="#CCCCCC"/>
<path d="M384.151 332.437H376.637V344.075H384.151V332.437Z" fill="#CCCCCC"/>
<path d="M384.151 346.801H376.637V358.439H384.151V346.801Z" fill="#CCCCCC"/>
<path d="M384.151 361.174H376.637V376.098H384.151V361.174Z" fill="#CCCCCC"/>
<path d="M374.724 361.174H365.68V376.098H374.724V361.174Z" fill="#CCCCCC"/>
<path d="M374.724 346.801H365.68V358.439H374.724V346.801Z" fill="#CCCCCC"/>
<path d="M374.724 332.437H365.68V344.075H374.724V332.437Z" fill="#CCCCCC"/>
<path d="M374.724 316.701H365.68V329.702H374.724V316.701Z" fill="#CCCCCC"/>
<path d="M363.403 316.066H324.436V390.714H363.403V316.066Z" fill="#FC6736" stroke="#263238" stroke-width="0.933333" stroke-linecap="round" stroke-linejoin="round"/>
<path d="M358.372 320.471H330.092V356.927H358.372V320.471Z" stroke="#263238" stroke-width="0.466667" stroke-linecap="round" stroke-linejoin="round"/>
<path d="M358.372 370.75H330.092V385.833H358.372V370.75Z" stroke="#263238" stroke-width="0.466667" stroke-linecap="round" stroke-linejoin="round"/>
<path d="M358.372 361.323H330.092V366.979H358.372V361.323Z" stroke="#263238" stroke-width="0.466667" stroke-linecap="round" stroke-linejoin="round"/>
<path d="M328.963 352.419H325.425V364.366H328.963V352.419Z" fill="#263238"/>
<path d="M344.549 311.287C348.168 311.287 351.101 308.354 351.101 304.735C351.101 301.117 348.168 298.183 344.549 298.183C340.93 298.183 337.997 301.117 337.997 304.735C337.997 308.354 340.93 311.287 344.549 311.287Z" stroke="#263238" stroke-width="0.933333" stroke-linecap="round" stroke-linejoin="round"/>
<path d="M347.107 316.71H341.973L340.975 310.382H348.105L347.107 316.71Z" fill="white" stroke="#263238" stroke-width="1.86667" stroke-linecap="round" stroke-linejoin="round"/>
<path d="M346.603 305.361H342.477L340.321 310.373H348.749L346.603 305.361Z" fill="white" stroke="#263238" stroke-width="0.933333" stroke-linecap="round" stroke-linejoin="round"/>
<path d="M345.567 302.869H343.513V305.305H345.567V302.869Z" fill="#263238" stroke="#263238" stroke-width="0.933333" stroke-linecap="round" stroke-linejoin="round"/>
<path d="M308.868 306.574L318.901 303.41C334.031 298.656 350.231 298.503 365.447 302.971L377.683 306.574H397.647V282.485L342.113 216.731L287.625 282.485V306.537L308.868 306.574Z" fill="white" stroke="#263238" stroke-width="0.933333" stroke-linecap="round" stroke-linejoin="round"/>
<path d="M397.647 390.061H287.625V398.862H397.647V390.061Z" fill="#263238" stroke="#263238" stroke-width="0.933333" stroke-linecap="round" stroke-linejoin="round"/>
<path d="M309.913 390.957V397.845" stroke="#B0B0B0" stroke-width="0.933333" stroke-linecap="round" stroke-linejoin="round"/>
<path d="M315.606 390.957V397.845" stroke="#B0B0B0" stroke-width="0.933333" stroke-linecap="round" stroke-linejoin="round"/>
<path d="M321.291 390.957V397.845" stroke="#B0B0B0" stroke-width="0.933333" stroke-linecap="round" stroke-linejoin="round"/>
<path d="M326.984 390.957V397.845" stroke="#B0B0B0" stroke-width="0.933333" stroke-linecap="round" stroke-linejoin="round"/>
<path d="M332.677 390.957V397.845" stroke="#B0B0B0" stroke-width="0.933333" stroke-linecap="round" stroke-linejoin="round"/>
<path d="M338.371 390.957V397.845" stroke="#B0B0B0" stroke-width="0.933333" stroke-linecap="round" stroke-linejoin="round"/>
<path d="M344.055 390.957V397.845" stroke="#B0B0B0" stroke-width="0.933333" stroke-linecap="round" stroke-linejoin="round"/>
<path d="M349.748 390.957V397.845" stroke="#B0B0B0" stroke-width="0.933333" stroke-linecap="round" stroke-linejoin="round"/>
<path d="M355.441 390.957V397.845" stroke="#B0B0B0" stroke-width="0.933333" stroke-linecap="round" stroke-linejoin="round"/>
<path d="M361.135 390.957V397.845" stroke="#B0B0B0" stroke-width="0.933333" stroke-linecap="round" stroke-linejoin="round"/>
<path d="M366.828 390.957V397.845" stroke="#B0B0B0" stroke-width="0.933333" stroke-linecap="round" stroke-linejoin="round"/>
<path d="M372.512 390.957V397.845" stroke="#B0B0B0" stroke-width="0.933333" stroke-linecap="round" stroke-linejoin="round"/>
<path d="M378.205 390.957V397.845" stroke="#B0B0B0" stroke-width="0.933333" stroke-linecap="round" stroke-linejoin="round"/>
<path d="M342.636 208.285L275.38 293.881H307.823V285.481H291.359L342.636 222.247L393.913 285.481H377.543V293.881H409.892L342.636 208.285Z" fill="white" stroke="#263238" stroke-width="0.933333" stroke-linecap="round" stroke-linejoin="round"/>
<path d="M307.776 293.881H275.38V301.618H307.776V293.881Z" fill="white" stroke="#263238" stroke-width="0.933333" stroke-linecap="round" stroke-linejoin="round"/>
<path d="M290.351 314.265H280.728V393.299H290.351V314.265Z" fill="white" stroke="#263238" stroke-width="0.933333" stroke-linecap="round" stroke-linejoin="round"/>
<path d="M290.901 311.381H280.177V314.367H290.901V311.381Z" fill="white" stroke="#263238" stroke-width="0.933333" stroke-linecap="round" stroke-linejoin="round"/>
<path d="M291.639 301.721H279.44V311.549H291.639V301.721Z" fill="white" stroke="#263238" stroke-width="0.933333" stroke-linecap="round" stroke-linejoin="round"/>
<path d="M280.177 389.137H290.901V386.15H280.177V389.137Z" fill="white" stroke="#263238" stroke-width="0.933333" stroke-linecap="round" stroke-linejoin="round"/>
<path d="M279.44 398.797H291.639V388.969H279.44V398.797Z" fill="white" stroke="#263238" stroke-width="0.933333" stroke-linecap="round" stroke-linejoin="round"/>
<path d="M304.687 314.265H295.064V393.299H304.687V314.265Z" fill="white" stroke="#263238" stroke-width="0.933333" stroke-linecap="round" stroke-linejoin="round"/>
<path d="M305.246 311.381H294.522V314.367H305.246V311.381Z" fill="white" stroke="#263238" stroke-width="0.933333" stroke-linecap="round" stroke-linejoin="round"/>
<path d="M305.984 301.721H293.785V311.549H305.984V301.721Z" fill="white" stroke="#263238" stroke-width="0.933333" stroke-linecap="round" stroke-linejoin="round"/>
<path d="M294.513 389.137H305.237V386.15H294.513V389.137Z" fill="white" stroke="#263238" stroke-width="0.933333" stroke-linecap="round" stroke-linejoin="round"/>
<path d="M293.776 398.797H305.975V388.969H293.776V398.797Z" fill="white" stroke="#263238" stroke-width="0.933333" stroke-linecap="round" stroke-linejoin="round"/>
<path d="M409.883 293.881H377.487V301.618H409.883V293.881Z" fill="white" stroke="#263238" stroke-width="0.933333" stroke-linecap="round" stroke-linejoin="round"/>
<path d="M392.457 314.265H382.834V393.299H392.457V314.265Z" fill="white" stroke="#263238" stroke-width="0.933333" stroke-linecap="round" stroke-linejoin="round"/>
<path d="M393.008 311.381H382.284V314.367H393.008V311.381Z" fill="white" stroke="#263238" stroke-width="0.933333" stroke-linecap="round" stroke-linejoin="round"/>
<path d="M393.745 301.721H381.546V311.549H393.745V301.721Z" fill="white" stroke="#263238" stroke-width="0.933333" stroke-linecap="round" stroke-linejoin="round"/>
<path d="M382.284 389.137H393.008V386.15H382.284V389.137Z" fill="white" stroke="#263238" stroke-width="0.933333" stroke-linecap="round" stroke-linejoin="round"/>
<path d="M381.546 398.797H393.745V388.969H381.546V398.797Z" fill="white" stroke="#263238" stroke-width="0.933333" stroke-linecap="round" stroke-linejoin="round"/>
<path d="M406.793 314.265H397.17V393.299H406.793V314.265Z" fill="white" stroke="#263238" stroke-width="0.933333" stroke-linecap="round" stroke-linejoin="round"/>
<path d="M407.353 311.381H396.629V314.367H407.353V311.381Z" fill="white" stroke="#263238" stroke-width="0.933333" stroke-linecap="round" stroke-linejoin="round"/>
<path d="M408.081 301.721H395.883V311.549H408.081V301.721Z" fill="white" stroke="#263238" stroke-width="0.933333" stroke-linecap="round" stroke-linejoin="round"/>
<path d="M396.62 389.137H407.344V386.15H396.62V389.137Z" fill="white" stroke="#263238" stroke-width="0.933333" stroke-linecap="round" stroke-linejoin="round"/>
<path d="M395.892 398.797H408.091V388.969H395.892V398.797Z" fill="white" stroke="#263238" stroke-width="0.933333" stroke-linecap="round" stroke-linejoin="round"/>
<path d="M191.567 346.801H182.327V358.439H191.567V346.801Z" fill="#CCCCCC"/>
<path d="M180.413 316.701H172.9V329.702H180.413V316.701Z" fill="#CCCCCC"/>
<path d="M180.413 332.437H172.9V344.075H180.413V332.437Z" fill="#CCCCCC"/>
<path d="M191.567 332.437H182.327V344.075H191.567V332.437Z" fill="#CCCCCC"/>
<path d="M180.413 346.801H172.9V358.439H180.413V346.801Z" fill="#CCCCCC"/>
<path d="M191.567 316.701H182.327V329.702H191.567V316.701Z" fill="#CCCCCC"/>
<path d="M180.413 361.174H172.9V376.098H180.413V361.174Z" fill="#CCCCCC"/>
<path d="M191.567 361.174H182.327V376.098H191.567V361.174Z" fill="#CCCCCC"/>
<path d="M170.977 361.174H161.933V376.098H170.977V361.174Z" fill="#CCCCCC"/>
<path d="M170.977 346.801H161.933V358.439H170.977V346.801Z" fill="#CCCCCC"/>
<path d="M170.977 332.437H161.933V344.075H170.977V332.437Z" fill="#CCCCCC"/>
<path d="M170.977 316.701H161.933V329.702H170.977V316.701Z" fill="#CCCCCC"/>
<path d="M227.061 346.801H217.821V358.439H227.061V346.801Z" fill="#CCCCCC"/>
<path d="M215.908 316.701H208.395V329.702H215.908V316.701Z" fill="#CCCCCC"/>
<path d="M215.908 332.437H208.395V344.075H215.908V332.437Z" fill="#CCCCCC"/>
<path d="M227.061 332.437H217.821V344.075H227.061V332.437Z" fill="#CCCCCC"/>
<path d="M215.908 346.801H208.395V358.439H215.908V346.801Z" fill="#CCCCCC"/>
<path d="M227.061 316.701H217.821V329.702H227.061V316.701Z" fill="#CCCCCC"/>
<path d="M215.908 361.174H208.395V376.098H215.908V361.174Z" fill="#CCCCCC"/>
<path d="M227.061 361.174H217.821V376.098H227.061V361.174Z" fill="#CCCCCC"/>
<path d="M206.482 361.174H197.438V376.098H206.482V361.174Z" fill="#CCCCCC"/>
<path d="M206.482 346.801H197.438V358.439H206.482V346.801Z" fill="#CCCCCC"/>
<path d="M206.482 332.437H197.438V344.075H206.482V332.437Z" fill="#CCCCCC"/>
<path d="M206.482 316.701H197.438V329.702H206.482V316.701Z" fill="#CCCCCC"/>
<path d="M262.565 346.801H253.325V358.439H262.565V346.801Z" fill="#CCCCCC"/>
<path d="M251.402 316.701H243.889V329.702H251.402V316.701Z" fill="#CCCCCC"/>
<path d="M251.402 332.437H243.889V344.075H251.402V332.437Z" fill="#CCCCCC"/>
<path d="M262.565 332.437H253.325V344.075H262.565V332.437Z" fill="#CCCCCC"/>
<path d="M251.402 346.801H243.889V358.439H251.402V346.801Z" fill="#CCCCCC"/>
<path d="M262.565 316.701H253.325V329.702H262.565V316.701Z" fill="#CCCCCC"/>
<path d="M251.402 361.174H243.889V376.098H251.402V361.174Z" fill="#CCCCCC"/>
<path d="M262.565 361.174H253.325V376.098H262.565V361.174Z" fill="#CCCCCC"/>
<path d="M241.976 361.174H232.932V376.098H241.976V361.174Z" fill="#CCCCCC"/>
<path d="M241.976 346.801H232.932V358.439H241.976V346.801Z" fill="#CCCCCC"/>
<path d="M241.976 332.437H232.932V344.075H241.976V332.437Z" fill="#CCCCCC"/>
<path d="M241.976 316.701H232.932V329.702H241.976V316.701Z" fill="#CCCCCC"/>
<path d="M266.616 310.41H157.257V380.802H266.616V310.41Z" stroke="#263238" stroke-width="0.933333" stroke-linecap="round" stroke-linejoin="round"/>
<path d="M455.849 346.801H446.609V358.439H455.849V346.801Z" fill="#CCCCCC"/>
<path d="M444.696 316.701H437.183V329.702H444.696V316.701Z" fill="#CCCCCC"/>
<path d="M444.696 332.437H437.183V344.075H444.696V332.437Z" fill="#CCCCCC"/>
<path d="M455.849 332.437H446.609V344.075H455.849V332.437Z" fill="#CCCCCC"/>
<path d="M444.696 346.801H437.183V358.439H444.696V346.801Z" fill="#CCCCCC"/>
<path d="M455.849 316.701H446.609V329.702H455.849V316.701Z" fill="#CCCCCC"/>
<path d="M444.696 361.174H437.183V376.098H444.696V361.174Z" fill="#CCCCCC"/>
<path d="M455.849 361.174H446.609V376.098H455.849V361.174Z" fill="#CCCCCC"/>
<path d="M435.269 361.174H426.225V376.098H435.269V361.174Z" fill="#CCCCCC"/>
<path d="M435.269 346.801H426.225V358.439H435.269V346.801Z" fill="#CCCCCC"/>
<path d="M435.269 332.437H426.225V344.075H435.269V332.437Z" fill="#CCCCCC"/>
<path d="M435.269 316.701H426.225V329.702H435.269V316.701Z" fill="#CCCCCC"/>
<path d="M491.344 346.801H482.104V358.439H491.344V346.801Z" fill="#CCCCCC"/>
<path d="M480.191 316.701H472.677V329.702H480.191V316.701Z" fill="#CCCCCC"/>
<path d="M480.191 332.437H472.677V344.075H480.191V332.437Z" fill="#CCCCCC"/>
<path d="M491.344 332.437H482.104V344.075H491.344V332.437Z" fill="#CCCCCC"/>
<path d="M480.191 346.801H472.677V358.439H480.191V346.801Z" fill="#CCCCCC"/>
<path d="M491.344 316.701H482.104V329.702H491.344V316.701Z" fill="#CCCCCC"/>
<path d="M480.191 361.174H472.677V376.098H480.191V361.174Z" fill="#CCCCCC"/>
<path d="M491.344 361.174H482.104V376.098H491.344V361.174Z" fill="#CCCCCC"/>
<path d="M470.764 361.174H461.72V376.098H470.764V361.174Z" fill="#CCCCCC"/>
<path d="M470.764 346.801H461.72V358.439H470.764V346.801Z" fill="#CCCCCC"/>
<path d="M470.764 332.437H461.72V344.075H470.764V332.437Z" fill="#CCCCCC"/>
<path d="M470.764 316.701H461.72V329.702H470.764V316.701Z" fill="#CCCCCC"/>
<path d="M526.848 346.801H517.608V358.439H526.848V346.801Z" fill="#CCCCCC"/>
<path d="M515.685 316.701H508.181V329.702H515.685V316.701Z" fill="#CCCCCC"/>
<path d="M515.685 332.437H508.181V344.075H515.685V332.437Z" fill="#CCCCCC"/>
<path d="M526.848 332.437H517.608V344.075H526.848V332.437Z" fill="#CCCCCC"/>
<path d="M515.685 346.801H508.181V358.439H515.685V346.801Z" fill="#CCCCCC"/>
<path d="M526.848 316.701H517.608V329.702H526.848V316.701Z" fill="#CCCCCC"/>
<path d="M515.685 361.174H508.181V376.098H515.685V361.174Z" fill="#CCCCCC"/>
<path d="M526.848 361.174H517.608V376.098H526.848V361.174Z" fill="#CCCCCC"/>
<path d="M506.268 361.174H497.224V376.098H506.268V361.174Z" fill="#CCCCCC"/>
<path d="M506.268 346.801H497.224V358.439H506.268V346.801Z" fill="#CCCCCC"/>
<path d="M506.268 332.437H497.224V344.075H506.268V332.437Z" fill="#CCCCCC"/>
<path d="M506.268 316.701H497.224V329.702H506.268V316.701Z" fill="#CCCCCC"/>
<path d="M530.899 310.41H421.54V380.802H530.899V310.41Z" stroke="#263238" stroke-width="0.933333" stroke-linecap="round" stroke-linejoin="round"/>
<path d="M657.991 399.357H665.243" stroke="#263238" stroke-width="0.933333" stroke-linecap="round" stroke-linejoin="round"/>
<path d="M38.3037 399.357H648.004" stroke="#263238" stroke-width="0.933333" stroke-linecap="round" stroke-linejoin="round"/>
<path d="M23.7905 399.357H30.1372" stroke="#263238" stroke-width="0.933333" stroke-linecap="round" stroke-linejoin="round"/>
</svg>
